<?xml version="1.0" encoding="UTF-8" standalone="no"?>
<svg
   xmlns:dc="http://purl.org/dc/elements/1.1/"
   xmlns:cc="http://creativecommons.org/ns#"
   xmlns:rdf="http://www.w3.org/1999/02/22-rdf-syntax-ns#"
   xmlns:svg="http://www.w3.org/2000/svg"
   xmlns="http://www.w3.org/2000/svg"
   viewBox="0 0 53.109409 104.31887"
   height="104.31887"
   width="53.109409"
   version="1.1"
   id="svg2">
  <metadata
     id="metadata8">
    <rdf:RDF>
      <cc:Work
         rdf:about="">
        <dc:format>image/svg+xml</dc:format>
        <dc:type
           rdf:resource="http://purl.org/dc/dcmitype/StillImage" />
        <dc:title></dc:title>
      </cc:Work>
    </rdf:RDF>
  </metadata>
  <defs
     id="defs6" />
  <path
     id="path4138"
     d="m 14.97,102.3182 0,-18 c 0.0604,-2.008494 2,-2 2,-2 l 7.749741,0 0.1612,-13.700005 -1.64027,0 c -3.19407,3e-6 -8.64673,-0.880833 -10.24339,-1.654743 C 9.3155207,65.178887 6.9442907,59.65922 3.7200107,45.368198 c -0.59562,-2.64 -1.5622,-6.285 -2.14794,-8.1 -1.05196001,-3.259653 -1.06341001,-3.351006 -0.93661001,-7.471811 0.0809,-2.629042 -0.0126,-4.958832 -0.25292,-6.3 -0.469642,-2.621302 -0.513659,-7.178967 -0.0943,-9.763706 0.40858,-2.518277 2.32028001,-6.1901999 4.38240001,-8.4175313 1.13752,-1.2286629 2.29355,-2.0701095 4.06899,-2.9617402 2.3130103,-1.1615962 2.7629103,-1.2743009 6.6800403,-1.67344562 9.59281,-0.97747905 13.36259,-0.92486571 22.39562,0.31256665 3.66995,0.50274477 5.84663,1.18490727 8.63469,2.70607097 2.32287,1.2673572 3.47303,2.2812045 4.21969,3.7195962 0.29978,0.5775 0.97136,1.455 1.49239,1.95 l 0.94735,0.9000003 -0.20858,4.8 c -0.22043,5.072991 -0.12662,4.664561 -2.4784,10.79131 -0.57823,1.506377 -0.79323,2.597197 -0.76871,3.9 0.0187,0.994781 0.0721,3.56369 0.1187,5.70869 0.0976,4.494546 -0.37491,7.102974 -2.55387,14.1 -0.71937,2.31 -1.81187,5.8875 -2.42779,7.95 -0.61592,2.0625 -1.376,4.3575 -1.68906,5.1 -1.56774,3.718236 -5.31192,5.491329 -12.45703,5.899149 l -3.375,0.192636 0,13.608217 7.700329,0 c 0,0 1.91935,-0.09415 2,2 l 0,18 c 0.04192,2.09576 -2,2 -2,2 l -18,0 c 0,0 -1.857652,0.0336 -2,-2 z M 35.669691,65.672855 c 2.5883,-0.256329 3.94695,-0.745878 4.85386,-1.748943 1.26335,-1.397286 2.94246,-5.738286 3.86275,-9.986373 0.51599,-2.381862 1.34634,-5.419362 1.84522,-6.75 2.91585,-7.777332 3.04669,-8.261268 3.16847,-11.719341 0.0899,-2.551899 0.0179,-3.431274 -0.31755,-3.879066 -0.42519,-0.567609 -0.4407,-0.566124 -0.78381,0.075 -0.50676,0.946884 -1.34913,0.873801 -1.10575,-0.09593 0.21308,-0.848955 -0.155,-0.98463 -0.74443,-0.274404 -0.40151,0.483786 -1.989,0.47286 -3.50376,-0.02412 -0.97579,-0.320145 -0.90265,0.657654 0.0828,1.106643 0.41677,0.189894 0.70651,0.490752 0.64386,0.668568 -0.17295,0.490884 -2.24281,0.319533 -2.85725,-0.236532 -0.66613,-0.602838 -1.72331,-0.638367 -1.94322,-0.06531 -0.0897,0.23367 -0.0357,1.32402 0.11994,2.422998 0.40494,2.859375 -0.0185,3.346026 -0.99976,1.149069 -0.94129,-2.107446 -1.61295,-5.736276 -1.85457,-10.0199 -0.19835,-3.516398 -0.17755,-3.566774 1.90958,-4.625103 1.33417,-0.676519 4.74459,-0.414813 8.22125,0.630876 1.34882,0.405689 2.75615,0.662952 3.1274,0.571696 0.64789,-0.159258 0.67493,-0.295201 0.67333,-3.385206 -0.002,-3.312838 -0.27686,-4.914977 -1.01817,-5.928772 -0.41958,-0.573808 -0.44118,-0.57303 -1.57778,0.05687 -0.63381,0.351255 -1.75988,0.736216 -2.50238,0.855468 -0.7425,0.119253 -1.58625,0.340896 -1.875,0.49254 -0.3899,0.204768 -0.525,0.159187 -0.525,-0.177135 0,-0.49517 0.9878,-1.075242 2.85,-1.673633 0.66,-0.21208 1.48361,-0.569959 1.83024,-0.795287 l 0.63023,-0.409685 -0.63553,-1.269827 c -0.34954,-0.6984023 -1.08213,-1.9763825 -1.62797,-2.8399538 -0.86105,-1.3622505 -1.19523,-1.6303527 -2.52416,-2.025 -1.60274,-0.4759635 -3.20152,-0.5729493 -4.35413,-0.2641314 -1.03088,0.2762022 -0.29742,0.9381951 1.30585,1.1786208 0.72901,0.1093215 1.32547,0.297069 1.32547,0.4172169 0,0.2855106 -2.11729,0.9161223 -3.0348,0.9038823 -0.39336,-0.00525 -0.97725,-0.2077476 -1.29754,-0.45 -0.72314,-0.546948 -1.66766,-0.5733333 -1.66766,-0.04658 0,0.690399 1.66914,2.0226144 2.7549,2.1988092 0.75546,0.1225941 1.58618,-0.057045 2.97183,-0.6426441 2.69958,-1.1408829 3.3287,-1.2175272 3.99058,-0.4861596 0.61951,0.6845454 0.49601,1.7799417 -0.28919,2.5651437 -0.66945,0.669449 -0.90351,0.586338 -0.88995,-0.316008 0.0199,-1.3279341 -0.7003,-1.4968932 -3.09656,-0.726393 -2.85173,0.916952 -5.25033,0.780094 -6.62678,-0.3781062 -1.47438,-1.2406104 -2.21521,-1.297194 -5.02088,-0.3834897 -1.76122,0.5735664 -2.91596,1.1718079 -3.89138,2.0160229 -0.76284,0.66024 -1.68937,1.39856 -2.05894,1.640712 -0.95235,0.624006 -1.77794,2.511486 -2.57683,5.89118 -0.89805,3.799191 -0.84749,3.85762 2.6645,3.079296 1.44028,-0.319195 3.80074,-0.628629 5.24544,-0.687631 2.57906,-0.105329 2.64305,-0.09097 3.525,0.790982 0.62333,0.62333 0.89826,1.192027 0.89826,1.85807 0,0.78673 -0.0754,0.89722 -0.41821,0.612721 -0.76018,-0.630892 -1.27976,0.36067 -1.50737,2.876683 -0.11678,1.290817 -0.4055,3.629439 -0.6416,5.196939 -0.23611,1.5675 -0.43008,3.770124 -0.43105,4.894722 -0.002,2.140734 -0.34401,3.205278 -1.03023,3.205278 -0.49379,0 -0.8154,0.736638 -0.58441,1.338579 0.17266,0.449952 0.46901,0.577395 2.10679,0.906036 1.07929,0.21657 3.09641,-0.49659 3.12345,-1.104306 0.01,-0.214671 0.002,-2.989059 -0.0163,-6.165309 -0.0185,-3.17625 0.0269,-5.775 0.10086,-5.775 0.074,0 0.36424,1.31625 0.645,2.925 1.08816,6.235302 1.38812,7.607025 1.95017,8.918232 0.32898,0.767475 0.78166,1.356768 1.04224,1.356768 0.26066,0 0.46066,0.260496 0.46066,0.6 0,0.804864 0.4277,0.757656 0.99618,-0.109959 0.62253,-0.950121 1.70381,-1.243287 1.70381,-0.461955 0,0.314553 -0.13461,0.571914 -0.29914,0.571914 -0.65561,0 -2.66902,2.17341 -2.86407,3.091683 -0.27716,1.304793 -0.96571,2.008317 -1.96558,2.008317 -0.45969,0 -0.91679,0.131043 -1.01577,0.291204 -0.28462,0.460515 1.31122,0.720297 2.1308,0.346872 1.05849,-0.48228 1.75979,-0.421764 3.03541,0.261924 0.6157,0.33 1.26929,0.6 1.45241,0.6 0.18312,0 0.57729,-0.27 0.87594,-0.6 0.79799,-0.881763 1.05,-0.741144 1.05,0.585885 0,1.41798 -0.53405,2.714115 -1.1183,2.714115 -0.2321,0 -0.87815,-0.483666 -1.43567,-1.07481 l -1.01367,-1.074813 -3.73565,0.09981 c -3.15369,0.08426 -3.83311,0.188154 -4.36132,0.666915 -0.45527,0.41265 -0.57635,0.780333 -0.44456,1.35 0.33632,1.453638 0.84021,1.608999 4.53879,1.399401 2.89708,-0.164178 3.40516,-0.124944 3.55856,0.274806 0.22318,0.581586 -0.31844,1.253586 -1.51633,1.881363 -1.39449,0.730809 -5.12278,0.643221 -8.79787,-0.206688 -2.47051,-0.571335 -3.22345,-0.64419 -3.825,-0.37011 -0.94502,0.430581 -0.94478,0.997815 0.001,2.38968 0.55558,0.817599 0.75,1.496931 0.75,2.620515 0,2.025075 1.00936,4.017543 2.4,4.737615 1.10277,0.571008 1.66871,0.568176 7.8,-0.03903 z m -14.23343,-10.00686 c 0.10417,-0.328224 0.0978,-1.508865 -0.0141,-2.623644 -0.19982,-1.989675 -0.18614,-2.044284 0.74509,-2.975514 1.09973,-1.099734 2.1312,-1.214739 2.95586,-0.329568 0.77865,0.835785 1.83718,0.807309 4.78711,-0.128778 1.36972,-0.434661 2.69517,-0.790293 2.94539,-0.790293 0.3677,0 0.33494,-0.168519 -0.17086,-0.87885 -1.04795,-1.47171 -2.40697,-2.12115 -4.43874,-2.12115 -1.15763,0 -1.92453,-0.14661 -2.14283,-0.40965 -0.20333,-0.245001 -0.30853,-1.300059 -0.26173,-2.625 0.0696,-1.971837 -0.0156,-2.374986 -0.77539,-3.66762 -1.07187,-1.823571 -1.89266,-2.169396 -5.74637,-2.421123 -2.68921,-0.175659 -3.10101,-0.133257 -3.975,0.409308 -0.82211,0.510354 -0.9743,0.782367 -0.97056,1.734675 0.006,1.527666 0.76859,4.662699 1.46446,6.020409 1.35347,2.64075 1.78195,3.991185 1.97629,6.228669 0.32103,3.696015 0.63244,4.607844 1.73154,5.069979 1.1071,0.465504 1.62911,0.329649 1.88984,-0.49185 z m -3.18586,-20.929527 c 0.35695,-0.22587 0.36351,-0.353517 0.0383,-0.745404 -0.33634,-0.405228 -0.3014,-0.472866 0.24426,-0.472866 1.06997,0 0.71596,-0.847968 -0.63827,-1.528857 -0.70125,-0.352578 -1.50274,-0.841047 -1.78109,-1.085484 -0.51845,-0.455283 -1.14391,-0.305481 -1.14391,0.273972 0,0.178323 0.23625,0.509928 0.525,0.736899 0.47218,0.371151 0.44199,0.393846 -0.3,0.225549 -0.72529,-0.164508 -0.825,-0.09887 -0.825,0.543105 0,1.493916 2.59487,2.866731 3.88071,2.053086 z m 5.67618,-3.809526 c 2.66968,-0.864735 2.78161,-2.575448 0.24391,-3.72766 -2.22004,-1.007977 -6.1167,-0.498791 -7.89612,1.031804 -1.028,0.884249 -0.81324,1.466226 0.85571,2.318807 2.55475,1.305096 3.73006,1.370301 6.7965,0.377049 z"
     style="fill:#000000" />
</svg>
