<?xml version="1.0" encoding="UTF-8"?>
<svg version="1.1" xmlns="http://www.w3.org/2000/svg" xmlns:xlink="http://www.w3.org/1999/xlink" viewBox="0 0 180 30">
<defs>
	<linearGradient id="gold" gradientUnits="userSpaceOnUse">
		<stop offset="5.618000e-03" style="stop-color:#FFCE3E"/>
		<stop offset="0.2528" style="stop-color:#FEEE7A"/>
		<stop offset="0.3315" style="stop-color:#F6DE70"/>
		<stop offset="0.4871" style="stop-color:#E5B957"/>
		<stop offset="0.5955" style="stop-color:#D99E45"/>
		<stop offset="0.8708" style="stop-color:#FEC15D"/>
		<stop offset="1" style="stop-color:#FEEE7A"/>
	</linearGradient>
</defs>
<g>
	<linearGradient id="grad1" xlink:href="#gold" x1="7.1015" y1="26.1267" x2="7.1015" y2="10.1276"/>
	<path style="fill:url(#grad1);" d="M12.9,25.4c-1.4,0.4-2.1,0.7-4.2,0.7c-4.7,0-7.8-3.4-7.8-7.9c0-4.5,2.9-8.1,7.5-8.1c2.4,0,3.3,0.5,4,0.5c0.2,0,0.4-0.1,0.5-0.2h0.2v2.8H13c-1-0.6-1.9-1.3-4.1-1.3c-3.3,0-5.5,2.6-5.5,6.3c0,3.5,2.2,6.1,5.5,6.1c2.2,0,3.4-0.9,4.3-1.5h0.2L12.9,25.4z"/>

	<linearGradient id="grad2" xlink:href="#gold" x1="21.3259" y1="25.6022" x2="21.3259" y2="10.5265"/>
	<path style="fill:url(#grad2);" d="M19.1,25.4c0.9-0.2,1.1-1.1,1.1-3v-8.8c0-1.9-0.2-2.7-1.1-3v-0.2h4.5v0.2c-0.9,0.2-1.1,1.1-1.1,3v8.8c0,1.9,0.2,2.7,1.1,3v0.2h-4.5V25.4z"/>

	<linearGradient id="grad3" xlink:href="#gold" x1="36.1506" y1="26.2895" x2="36.1506" y2="10.5265"/>
	<path style="fill:url(#grad3);" d="M30,12.8c-0.5-1.1-0.7-1.8-1.6-2.1v-0.2h4   v0.2c-0.4,0.1-0.5,0.4-0.5,0.7c0,0.5,0.3,1,0.7,2l3.5,8.4l3.5-8.3c0.4-1.1,0.7-1.7,0.7-2.2c0-0.3-0.1-0.6-0.6-0.7v-0.2h4.1v0.2c-0.8,0.3-1.1,1-1.6,2.1l-6.1,13.5H36L30,12.8z"/>

	<linearGradient id="grad4" xlink:href="#gold" x1="50.7659" y1="25.6022" x2="50.7659" y2="10.5265"/>
	<path style="fill:url(#grad4);" d="M48.5,25.4c0.9-0.2,1.1-1.1,1.1-3v-8.8c0-1.9-0.2-2.7-1.1-3v-0.2H53v0.2c-0.9,0.2-1.1,1.1-1.1,3v8.8c0,1.9,0.2,2.7,1.1,3v0.2h-4.5V25.4z"/>

	<linearGradient id="grad5" xlink:href="#gold" x1="64.5278" y1="25.6022" x2="64.5278" y2="10.5265"/>
	<path style="fill:url(#grad5);" d="M61.3,13.7c0-1.9-0.2-2.7-1.1-3v-0.2h4.5v0.2c-0.9,0.2-1.1,1.1-1.1,3v8.4c0,1.4,0.1,1.8,1.2,1.8h1.6c1.5,0,1.9-0.2,2.4-1.2h0.2l-0.3,2.9h-8.4v-0.2c0.9-0.2,1.1-1,1.1-3V13.7z"/>

	<linearGradient id="grad6" xlink:href="#gold" x1="76.2767" y1="25.6022" x2="76.2767" y2="10.5265"/>
	<path style="fill:url(#grad6);" d="M74,25.4c0.9-0.2,1.1-1.1,1.1-3v-8.8c0-1.9-0.2-2.7-1.1-3v-0.2h4.5v0.2c-0.9,0.2-1.1,1.1-1.1,3v8.8c0,1.9,0.2,2.7,1.1,3v0.2H74V25.4z"/>

	<linearGradient id="grad7" xlink:href="#gold" x1="90.3092" y1="25.6022" x2="90.3092" y2="10.5265"/>
	<path style="fill:url(#grad7);" d="M92.3,12.3h-3.5c-2.1,0-2.7,0.2-3.3,1h-0.2v-2.8h10.4v0.2l-7.6,13.1h2.6c2.7,0,4.8,0,4.9-1.3h0.2l-0.4,3H84.7v-0.2L92.3,12.3z"/>

	<linearGradient id="grad8" xlink:href="#gold" x1="107.2878" y1="25.6022" x2="107.2878" y2="10.1276"/>
	<path style="fill:url(#grad8);" d="M99.5,25.4c0.6,0,0.9-0.6,1.7-2.3l5.9-12.9h0.3l5.9,12.8c0.6,1.4,0.9,2,1.8,2.5v0.2h-4.4v-0.2c0.2,0,0.6-0.3,0.6-0.8c0-0.4-0.1-0.8-0.2-1.1l-0.8-2h-6.1l-0.8,2c-0.2,0.4-0.3,0.9-0.3,1.3c0,0.5,0.3,0.6,0.6,0.7v0.2h-4V25.4z M104.9,19.8h4.7l-2.3-5.5L104.9,19.8z"/>

	<linearGradient id="grad9" xlink:href="#gold" x1="122.3377" y1="25.6022" x2="122.3377" y2="10.5265"/>
	<path style="fill:url(#grad9);" d="M121.2,12.3h-1c-2.1,0-2.3,0.3-2.8,1.1h-0.2l0.3-2.8h9.8l0.3,2.8h-0.2c-0.5-0.8-0.7-1.1-2.8-1.1h-1v10.2c0,1.9,0.2,2.7,1.1,3v0.2h-4.5v-0.2c0.9-0.2,1.1-1.1,1.1-3V12.3z"/>

	<linearGradient id="grad10" xlink:href="#gold" x1="135.2838" y1="25.6022" x2="135.2838" y2="10.5265"/>
	<path style="fill:url(#grad10);" d="M133,25.4c0.9-0.2,1.1-1.1,1.1-3v-8.8c0-1.9-0.2-2.7-1.1-3v-0.2h4.5v0.2c-0.9,0.2-1.1,1.1-1.1,3v8.8c0,1.9,0.2,2.7,1.1,3v0.2H133V25.4z"/>

	<linearGradient id="grad11" xlink:href="#gold" x1="151.1038" y1="26.0014" x2="151.1038" y2="10.1276"/>
	<path style="fill:url(#grad11);" d="M143.3,18c0-6.5,4.9-7.9,7.8-7.9c3,0,7.8,1.5,7.8,7.9c0,6.5-4.9,8-7.8,8C148.1,26,143.3,24.5,143.3,18z M151.1,24.2c3.9,0,5.5-2.7,5.5-6.2c0-3.5-1.7-6.1-5.5-6.1c-3.9,0-5.5,2.6-5.5,6.1C145.6,21.6,147.2,24.2,151.1,24.2z"/>

	<linearGradient id="grad12" xlink:href="#gold" x1="171.428" y1="26.3117" x2="171.428" y2="9.684"/>
	<path style="fill:url(#grad12);" d="M164.9,9.7h0.2l10.5,11.5v-7.5c0-1.9-0.2-2.7-1.1-3v-0.2h4.5v0.2c-0.9,0.2-1.1,1.1-1.1,3v12.6h-0.2l-10.5-11.4v7.6c0,1.9,0.2,2.7,1.1,3v0.2h-4.5v-0.2c0.9-0.2,1.1-1.1,1.1-3V9.7z"/>
	<g>

		<linearGradient id="grad13" xlink:href="#gold" x1="66.6419" y1="6.77" x2="66.6419" y2="3.6883"/>
		<path style="fill:url(#grad13);" d="M65.7,6.3c0-0.1,0.1-0.1,0.1-0.2c0-0.1,0.1-0.1,0.1,0c0,0,0.4,0.3,0.7,0.3c0.3,0,0.5-0.2,0.5-0.4c0-0.3-0.2-0.4-0.6-0.6C66,5.2,65.7,5,65.7,4.5c0-0.3,0.3-0.8,0.9-0.8c0.4,0,0.7,0.2,0.8,0.3c0,0,0.1,0.1,0,0.1c0,0.1-0.1,0.1-0.1,0.2c0,0.1-0.1,0.1-0.1,0c0,0-0.3-0.2-0.6-0.2c-0.4,0-0.5,0.2-0.5,0.4c0,0.2,0.2,0.4,0.5,0.5c0.5,0.2,0.9,0.4,0.9,1c0,0.4-0.4,0.8-1,0.8c-0.5,0-0.9-0.3-0.9-0.3C65.7,6.4,65.7,6.4,65.7,6.3z"/>

		<linearGradient id="grad14" xlink:href="#gold" x1="70.942" y1="6.7273" x2="70.942" y2="3.7312"/>
		<path style="fill:url(#grad14);" d="M70.7,3.8C70.7,3.8,70.8,3.7,70.7,3.8l0.4-0.1c0,0,0.1,0,0.1,0.1v2.8c0,0,0,0.1-0.1,0.1h-0.3c0,0-0.1,0-0.1-0.1V3.8z"/>

		<linearGradient id="grad15" xlink:href="#gold" x1="75.8027" y1="6.7273" x2="75.8027" y2="3.7312"/>
		<path style="fill:url(#grad15);" d="M74.5,3.8C74.5,3.8,74.6,3.7,74.5,3.8l1.1-0.1c0.8,0,1.5,0.7,1.5,1.5c0,0.8-0.7,1.5-1.5,1.5h-1c0,0-0.1,0-0.1-0.1V3.8z M75.5,6.3c0.6,0,1.1-0.5,1.1-1.1c0-0.6-0.5-1.1-1.1-1.1H75v2.2H75.5z"/>

		<linearGradient id="grad16" xlink:href="#gold" x1="85.1381" y1="6.77" x2="85.1381" y2="3.6883"/>
		<path style="fill:url(#grad16);" d="M84,3.8C84,3.7,84.1,3.7,84,3.8l0.1-0.1c0,0,0.1,0,0.1,0l0.9,2.2h0L86,3.7c0,0,0,0,0.1,0h0.1c0,0,0.1,0,0.1,0.1l0.5,2.9c0,0.1,0,0.1-0.1,0.1h-0.3c0,0-0.1,0-0.1-0.1L86,4.8c0,0,0,0,0,0l-0.8,2c0,0,0,0-0.1,0h-0.1c0,0-0.1,0-0.1,0l-0.8-2c0,0,0,0,0,0l-0.3,1.9c0,0,0,0.1-0.1,0.1h-0.3c-0.1,0-0.1,0-0.1-0.1L84,3.8z"/>

		<linearGradient id="grad17" xlink:href="#gold" x1="90.8783" y1="6.7273" x2="90.8783" y2="3.7312"/>
		<path style="fill:url(#grad17);" d="M89.9,3.8C89.9,3.8,90,3.7,89.9,3.8l1.8-0.1c0,0,0.1,0,0.1,0.1v0.2c0,0,0,0.1-0.1,0.1h-1.4V5h1.1c0,0,0.1,0,0.1,0.1v0.2c0,0,0,0.1-0.1,0.1h-1.1v0.9h1.4c0,0,0.1,0,0.1,0.1v0.2c0,0,0,0.1-0.1,0.1H90c0,0-0.1,0-0.1-0.1V3.8z"/>

		<linearGradient id="grad18" xlink:href="#gold" x1="95.2107" y1="6.7273" x2="95.2107" y2="3.7312"/>
		<path style="fill:url(#grad18);" d="M95,3.8C95,3.8,95,3.7,95,3.8l0.4-0.1c0,0,0.1,0,0.1,0.1v2.8c0,0,0,0.1-0.1,0.1h-0.3c0,0-0.1,0-0.1-0.1V3.8z"/>

		<linearGradient id="grad19" xlink:href="#gold" x1="99.727" y1="6.7273" x2="99.727" y2="3.7312"/>
		<path style="fill:url(#grad19);" d="M98.8,3.8C98.8,3.8,98.8,3.7,98.8,3.8l1.8-0.1c0,0,0.1,0,0.1,0.1v0.2c0,0,0,0.1-0.1,0.1h-1.4V5h1.1c0,0,0.1,0,0.1,0.1v0.2c0,0,0,0.1-0.1,0.1h-1.1v0.9h1.4c0,0,0.1,0,0.1,0.1v0.2c0,0,0,0.1-0.1,0.1h-1.7c0,0-0.1,0-0.1-0.1V3.8z"/>

		<linearGradient id="grad20" xlink:href="#gold" x1="104.9262" y1="6.7273" x2="104.9262" y2="3.7312"/>
		<path style="fill:url(#grad20);" d="M103.8,3.8C103.8,3.8,103.9,3.7,103.8,3.8l1.2-0.1c0.5,0,0.9,0.4,0.9,0.9c0,0.4-0.3,0.7-0.6,0.9l0.6,1.1c0,0.1,0,0.1-0.1,0.1h-0.3c0,0-0.1,0-0.1,0l-0.6-1.1h-0.6v1.1c0,0,0,0.1-0.1,0.1h-0.3c0,0-0.1,0-0.1-0.1V3.8z M105,5.2c0.3,0,0.5-0.2,0.5-0.5c0-0.3-0.2-0.5-0.5-0.5h-0.8v1H105z"/>

		<linearGradient id="grad21" xlink:href="#gold" x1="109.2288" y1="4.9174" x2="109.2288" y2="3.6883"/>
		<path style="fill:url(#grad21);" d="M109,4.8c0,0,0-0.1,0-0.1c0,0,0.3-0.2,0.3-0.5c0,0,0,0-0.1,0c-0.1,0-0.3-0.1-0.3-0.3c0-0.1,0.1-0.3,0.3-0.3c0.1,0,0.3,0.1,0.3,0.4c0,0.4-0.2,0.7-0.4,0.8C109.1,4.9,109.1,4.9,109,4.8L109,4.8z"/>

		<linearGradient id="grad22" xlink:href="#gold" x1="113.33" y1="6.77" x2="113.33" y2="3.6883"/>
		<path style="fill:url(#grad22);" d="M112.4,6.3c0-0.1,0.1-0.1,0.1-0.2c0-0.1,0.1-0.1,0.1,0c0,0,0.4,0.3,0.7,0.3c0.3,0,0.5-0.2,0.5-0.4c0-0.3-0.2-0.4-0.6-0.6c-0.4-0.2-0.8-0.4-0.8-0.9c0-0.3,0.3-0.8,0.9-0.8c0.4,0,0.7,0.2,0.8,0.3c0,0,0.1,0.1,0,0.1c0,0.1-0.1,0.1-0.1,0.2c0,0.1-0.1,0.1-0.1,0c0,0-0.3-0.2-0.6-0.2c-0.4,0-0.5,0.2-0.5,0.4c0,0.2,0.2,0.4,0.5,0.5c0.5,0.2,0.9,0.4,0.9,1c0,0.4-0.4,0.8-1,0.8c-0.5,0-0.9-0.3-0.9-0.3C112.4,6.4,112.3,6.4,112.4,6.3z"/>
	</g>
</g>
</svg>
