<svg id="Layer_1" data-name="Layer 1" xmlns="http://www.w3.org/2000/svg" width="370.29" height="161.49" viewBox="0 0 370.29 161.49"><defs><style>.cls-1{fill:#231f20;}</style></defs><path class="cls-1" d="M183.55,124.66c-.56.12-1.05.2-1.53.33-.29.08-.39.33-.37.71.28,0,.54,0,.79,0s.43-.11.65-.14C183.84,125.47,183.89,125.36,183.55,124.66Z"></path><path class="cls-1" d="M177.64,125.06a9.6,9.6,0,0,0-2.26.64,3.74,3.74,0,0,1-2.49.11,5.5,5.5,0,0,0-3-.06,3.71,3.71,0,0,1-3.29-.25.84.84,0,0,0-.37-.14,3.63,3.63,0,0,0-1.52-.1,1.74,1.74,0,0,1-1.48-.13,5.36,5.36,0,0,0-4-.49c-.41.12-.82.24-1.22.39a2,2,0,0,1-1.54,0,3.17,3.17,0,0,0-.85-.24c-.43,0-.88-.1-1.08.45a.6.6,0,0,0,.69.41,2.16,2.16,0,0,1,.67,0,4.88,4.88,0,0,0,2.51-.24c.25-.08.5-.15.75-.24a.68.68,0,0,1,.92.28s.13,0,.23,0l.41-.37c1.29.51,1.29.51,1.77,1.53a3.5,3.5,0,0,1-.51.26,7.46,7.46,0,0,1-3.08.3,1.82,1.82,0,0,0-1.49.27,1.34,1.34,0,0,1-1.32.14,1.86,1.86,0,0,0-.78-.09,28.58,28.58,0,0,0-3.2.42,2.06,2.06,0,0,1-1.43-.13,1.59,1.59,0,0,0-1.51,0l1.61,1.6c-.15.37.36,1,0,1.37l-.95.26a4.09,4.09,0,0,1-1,.3,3,3,0,0,0-1.93.61.72.72,0,0,1-1,0,4,4,0,0,0-2.72-.64c-.88,0-1.77.09-2.65.16-.52,0-1,.12-1.55.21a4.15,4.15,0,0,1-1.34.25,7.25,7.25,0,0,0-3.86.46,1.77,1.77,0,0,1-.87.14c-.87-.13-1.73-.32-2.59-.52-.63-.14-.83-.08-1.28.53a2.52,2.52,0,0,0,2.12.56c.85-.08,1.7-.24,2.55-.3a6.64,6.64,0,0,1,2.84.17,5.79,5.79,0,0,0,3.22.12c.9-.17,1.82-.29,2.74-.39a5.88,5.88,0,0,1,.92.07c0,.92-.91.63-1.26,1.25a2.86,2.86,0,0,0,1.08,0,3,3,0,0,1,1.83,0,.63.63,0,0,1,.45.4.77.77,0,0,1-.25.58,3.45,3.45,0,0,1-1.86.81c-.85.08-1.7.13-2.55.18a2.92,2.92,0,0,0-1.4.39,2.32,2.32,0,0,1-2.25.27,1.15,1.15,0,0,0-1.3.19,6.27,6.27,0,0,1-2.85,1.23c-.35.08-.71.14-1.06.24a17.07,17.07,0,0,1-4.8.92,12.34,12.34,0,0,0-4.28,1,10,10,0,0,1-3.45.69c-.83,0-1.66,0-2.48,0a4.56,4.56,0,0,0-2.18.5,6.52,6.52,0,0,1-1.68.45,15.75,15.75,0,0,1-2.06.17,4.62,4.62,0,0,1-1.58-.07,5.73,5.73,0,0,0-3.77,0,1.69,1.69,0,0,1-2.16-.6,2.09,2.09,0,0,0-.2-.22,1.48,1.48,0,0,0-1.51-.49,11.59,11.59,0,0,0-1.3.42,5.43,5.43,0,0,1-2.84.63c-1.36-.22-2.71-.46-4.06-.7-.19,0-.38-.1-.57-.14-1.27-.21-2.55-.34-3.8-.66s-2.46-.84-3.7-1.22a7,7,0,0,0-3.86-.47,1.06,1.06,0,0,1-.77,0,5.55,5.55,0,0,0-2.11-1c-.15,0-.37-.42-.32-.51.29-.53-.13-.78-.37-1.11a6.62,6.62,0,0,0-2.44-1.72,13.6,13.6,0,0,0-2.36-.77c-.71-1.41-1.08-1.48-2.55-1.19a5.21,5.21,0,0,1-2.19-.06c-.63-.14-.79-.46-1-1.08.25,0,.58-.2.68-.11.38.37.79.22,1.21.19a4.91,4.91,0,0,1,1.65-.09c.76.19,1.65,0,2.28.64.08.08.32.05.48,0a.68.68,0,0,0,.55-1.12,1.9,1.9,0,0,0-1.87-.87A14.42,14.42,0,0,1,69,129.3a1.6,1.6,0,0,1-1.32-.73c-.12-.21-.49-.3-.77-.38a8.12,8.12,0,0,1-2.33-.7,7,7,0,0,0-3.26-.92,3.22,3.22,0,0,1-2-.8,1.88,1.88,0,0,0-1.57-.68,1.57,1.57,0,0,1-.67-.13c-.54-.21-.62-.55-.25-1,.07-.08.17-.12.23-.19.42-.47.4-.76,0-1.18-.17-.15-.35-.28-.58-.46l.81-1.23a4.76,4.76,0,0,0-1.09-.72,15.63,15.63,0,0,1-3.7-2.19,1,1,0,0,1-.48-.81,2.14,2.14,0,0,0-1-1.71c-.19-.11-.45-.29-.47-.46-.09-.78-.7-1.08-1.25-1.41a5.65,5.65,0,0,1-2.45-3.1,3.37,3.37,0,0,0-1.29-1.75A1.29,1.29,0,0,1,45,108a3,3,0,0,0-.78-1.43A7.14,7.14,0,0,1,42,103a3.73,3.73,0,0,0-1.21-2.08,3.68,3.68,0,0,1-1.34-2.79c0-.49-.13-1-.72-1.16A1.27,1.27,0,0,1,38,96a4.12,4.12,0,0,0-.45-.82c-.24-.42-.66-.83-.69-1.26a2.89,2.89,0,0,0-1.43-2.41,2.09,2.09,0,0,1-1-2.1,10.32,10.32,0,0,0,0-1.47,2.17,2.17,0,0,0-.3-1,9.1,9.1,0,0,0-1.26-1.51,3.39,3.39,0,0,1-1.13-2.88,10.27,10.27,0,0,0-1-4.7A10,10,0,0,1,30,75.33c-.23-1.86-.12-3.77-.85-5.55a.55.55,0,0,1,.43-.83l.23.18c.64.41.91.3.91-.44a8.8,8.8,0,0,0-.19-1.77,6,6,0,0,1-.24-2.13A4.7,4.7,0,0,0,30,62.46a3,3,0,0,1,.11-2.6c.24-.42.48-.84.74-1.25a4.33,4.33,0,0,0,.84-1.86,9.63,9.63,0,0,1,1.22-3A4.49,4.49,0,0,0,33.54,51c-.14-1,.56-1.84,1.3-2.69a1.63,1.63,0,0,1,.08.45,4.27,4.27,0,0,1-.13.48c-.4,1.5-1.44,2.85-1,4.54a.36.36,0,0,1-.05.19c-.62,1-.34,2.21-.45,3.29s-.23,1.88-.34,2.82a1.76,1.76,0,0,0,0,.76.89.89,0,0,0,1,.46.61.61,0,0,0,.28-.84,4.49,4.49,0,0,1-.18-1,7.39,7.39,0,0,1,.53-4.25,3.62,3.62,0,0,0,.46-1.3,8.09,8.09,0,0,1,.93-2.9,10.16,10.16,0,0,0,.87-2.5c.26-1,.63-2.07,1-3.1a5.49,5.49,0,0,1,.52-1.16,5.72,5.72,0,0,0,.84-2.2,4.24,4.24,0,0,1,1.76-2.85,3.88,3.88,0,0,0,.88-.93c.63-.95,1.21-1.95,1.82-2.92a3.12,3.12,0,0,1,.43-.53c1-1,2-2,3.06-3a19.86,19.86,0,0,1,1.59-1.32c.22-.17.6-.3.78,0a1,1,0,0,1-.11.71,2.23,2.23,0,0,1-.51.6,5.07,5.07,0,0,0-1.52,2.72,5.86,5.86,0,0,1-.71,1.5c-.23.43-.5.83-.73,1.26s-.53,1.13-.82,1.68-.53.76-.73,1.17c-.8,1.66-1.58,3.32-2.37,5a.91.91,0,0,1-.2.33,1.87,1.87,0,0,0-.54,1.54,3.78,3.78,0,0,1-.77,2.31,2.34,2.34,0,0,0-.57,1.13,2.62,2.62,0,0,1-1,1.94,4.39,4.39,0,0,0-1.27,3.4,3.56,3.56,0,0,0,.18.83,1.57,1.57,0,0,1-.09.23c-.31.7-.64,1.38-.94,2.08a5.35,5.35,0,0,0-.45,1.21.57.57,0,0,0,.51.77c.43.05.67-.15.69-.68a5.19,5.19,0,0,1,.54-1.9,9.93,9.93,0,0,0,.44-1.53,2.86,2.86,0,0,1,.15-.41c.12-.25.27-.48.37-.74h0l.7-1.09a4.12,4.12,0,0,0,.8-3.26c.33-.63.65-1.21.94-1.79s.57-1.18.88-1.76.76-1.31,1.11-2a1.44,1.44,0,0,0,.19-.85,3,3,0,0,1,.57-2.13C45.08,41.44,46,40,47,38.52a4.68,4.68,0,0,0,.35-.71,35.65,35.65,0,0,1,2.54-4.08s0,0,.07-.07a14.91,14.91,0,0,0,1.94-2.22,12.16,12.16,0,0,1,3-3.31,17.55,17.55,0,0,1,5.89-3.54,9.36,9.36,0,0,0,2.06-1.16,2.48,2.48,0,0,1,1.56-.51,2.12,2.12,0,0,0,1-.16,18.24,18.24,0,0,1,6.86-1.66,12.51,12.51,0,0,0,3.36-.66,6.27,6.27,0,0,1,3.1-.23,12.71,12.71,0,0,0,4.13.26,7.31,7.31,0,0,1,1.87-.06A13.18,13.18,0,0,1,86,20.8c.86.19,1.73.36,2.61.49.58.08,1.17.09,1.75.13a2.89,2.89,0,0,1,.59,0,30.35,30.35,0,0,1,4.9,1.48,28.82,28.82,0,0,1,4.45,2.13,2.85,2.85,0,0,0,1.36.5,12,12,0,0,1,5.25,1.62c1.42.79,3.12.87,4.43,1.89a.61.61,0,0,0,.37.12c.57,0,.88.35,1.23.73s.6.63.93.66a4.06,4.06,0,0,1,1.62.66c1.21.64,2.46,1.25,3.68,1.87a5,5,0,0,0,1.47.74,4.78,4.78,0,0,1,3.36,2,1.93,1.93,0,0,0,1.58.86,2.17,2.17,0,0,1,1.74.79,1.21,1.21,0,0,0,.47.37,1.52,1.52,0,0,1,1.09,1.84,1.43,1.43,0,0,0,0,.29,1.24,1.24,0,0,0,1.32,1.17c.49,0,1,0,1.48,0a1.19,1.19,0,0,1,1.18.56,1.79,1.79,0,0,0,1.53,1,3.52,3.52,0,0,1,2.43.93,1.06,1.06,0,0,0,1.2.2,1.09,1.09,0,0,1,1.54.43,1.74,1.74,0,0,0,1.56.7c.59,0,1.18-.08,1.77-.14a2.48,2.48,0,0,1,.58-.09c1.1.21,2.21.38,3.28.68,1.81.52,3.56.77,5.2-.47a1.18,1.18,0,0,1,.81-.16,4.09,4.09,0,0,0,4-1.23c.49-.54,1-1.06,1.47-1.6.72-.81,1.43-1.63,2.24-2.56-.1-.67.27-1.16,1.11-1.42.3-.09.53-.45.79-.7a4.85,4.85,0,0,1,.54-.57,4.36,4.36,0,0,0,1.84-3,1.13,1.13,0,0,1,.35-.75,1.72,1.72,0,0,0,.93-1.52,1.54,1.54,0,0,1,.22-.54,4.18,4.18,0,0,0,.9-.11c.42-.14.71-.44.57-.91a4.92,4.92,0,0,1,0-2.35,1.32,1.32,0,0,0-.1-.76,1.09,1.09,0,0,1,.42-1.53,1.4,1.4,0,0,0,.59-1.71,2.36,2.36,0,0,1-.16-.77.81.81,0,0,0-.62-.79l-.54-.22c0-.95,0-1.87,0-2.79s-.38-1.51-1.12-1.4a2.18,2.18,0,0,1-1.39-.27,1.73,1.73,0,0,0-2.5.54l-.39.45a2.76,2.76,0,0,1-2,1.13,1.53,1.53,0,0,0-1.3.94c-.1.21-.16.44-.25.65a1,1,0,0,1-1.51.53,6.92,6.92,0,0,1-.8-.57A21.51,21.51,0,0,0,154,19.37,7.05,7.05,0,0,1,152,17.73a1.55,1.55,0,0,0-1.55-.64,1.57,1.57,0,0,1-1.84-1,1,1,0,0,0-.15-.25l-1.59-1.75a5.37,5.37,0,0,1-3-1.59,9,9,0,0,0-2.2-1.07,6.25,6.25,0,0,1-3-1.92,1.48,1.48,0,0,0-.57-.39c-.9-.47-1.82-.92-2.71-1.4a14.92,14.92,0,0,1-3-1.73,4.82,4.82,0,0,0-3.32-1.26,4.53,4.53,0,0,1-2.93-1.2c-1.11-.89-1.32-.91-2.5-.1a2,2,0,0,1-2.68,0,2.85,2.85,0,0,0-2.6-.51,2.3,2.3,0,0,1-1.52-.17,12.79,12.79,0,0,0-3.8-1.31A8.53,8.53,0,0,1,110.41.8a2.87,2.87,0,0,0-2.27.13c-.65.28-.44.92-.79,1.29a2.49,2.49,0,0,1-.23.19l-2.66-.79a8.85,8.85,0,0,0-4-.24,4.21,4.21,0,0,1-2.6-.25A3.68,3.68,0,0,0,95.07,1a3.83,3.83,0,0,1-1.26.16C93,1.09,92.23,1,91.44,1c-2-.08-4.09.16-6-.79a1.38,1.38,0,0,0-1.66.27.9.9,0,0,1-1.38.14,3,3,0,0,0-2.2-.29c-.71.11-1.41.32-2.12.42a2.61,2.61,0,0,0-1.66.53.5.5,0,0,1-.36.11A4.25,4.25,0,0,1,73.63,1a1.52,1.52,0,0,0-1.86,0A3.46,3.46,0,0,1,69,1.68a7.94,7.94,0,0,0-1.29,0,1.08,1.08,0,0,0-.65.18,2.85,2.85,0,0,1-2.42.57,3.72,3.72,0,0,0-2.51.68,2.13,2.13,0,0,1-1.43.51A2.45,2.45,0,0,0,59,4.09a3.6,3.6,0,0,1-1.46.78,27.41,27.41,0,0,0-2.78.62c-.29,0-.6,0-.89,0a1,1,0,0,0-.85.73c-.11.45.19.64.57.78.16,0,.28.22.43.35-.42.62-.82.36-1.19.08s-1.1-.69-1.54-.37a6.87,6.87,0,0,1-2.79,1.3c-.06,0-.1.08-.16.11-.89.64-1.94,1-2.81,1.68a17.89,17.89,0,0,1-2,1.11,3.89,3.89,0,0,0-2,3c0,.23-.12.45-.24.91a7.18,7.18,0,0,1-.28-.68.88.88,0,0,0-1.05-.69,3.19,3.19,0,0,0-1.12.29A11,11,0,0,0,35.78,17a5.07,5.07,0,0,1-2.17,1.64,2.59,2.59,0,0,0-1,.72A6,6,0,0,1,30.5,21.1a3.57,3.57,0,0,0-2,2.53A3.31,3.31,0,0,1,26.55,26a4.59,4.59,0,0,0-1.3,1c-.63.75-1.12,1.62-1.76,2.37a5.4,5.4,0,0,1-1.65,1.52,1.34,1.34,0,0,0-.9,1.33c-.08,1.27-.24,1.45-1.45,1.71a1.78,1.78,0,0,0-1.38,1A8.85,8.85,0,0,0,17,38.57a1.21,1.21,0,0,1-.59,1.18,1.38,1.38,0,0,0-.92,1.17.48.48,0,0,1-.22.31,1.25,1.25,0,0,0-.72,1.19,1.87,1.87,0,0,1-.31.59,3.57,3.57,0,0,0-.47.85c-.12.57-.43.73-1,.73s-.84.29-.76,1c0,.13.06.25.09.38a2.22,2.22,0,0,1-.44,1.92,3.08,3.08,0,0,0-.87,2.25,2.17,2.17,0,0,1-.47,1.17c-.36.59-.81,1.12-1.19,1.7a2.48,2.48,0,0,0-.55,1.34,3.82,3.82,0,0,1-.5,1.48,12.47,12.47,0,0,1-1.29,2A5.3,5.3,0,0,0,6,60.48c-.1.56.19.8.82.83.36,0,.71,0,1.16-.06l-.43,1.13c-.66,0-1.29,0-1.91,0s-.82.15-1,.75c0,.13,0,.26-.07.39-.4,2.47-.63,5-1.2,7.43-.27,1.14-.81,2.39.17,3.49-.22.24-.35.48-.55.56-.68.26-.76.81-.79,1.43-.07,1.49-.18,3-.27,4.46,0,.29,0,.58,0,.85a4.15,4.15,0,0,1,1.35.66,4.49,4.49,0,0,1,.6,1.37l-.22.1a2.35,2.35,0,0,0-.32-.61c-.2-.2-.48-.45-.7-.44s-.43.34-.58.57A.78.78,0,0,0,2,84a5.44,5.44,0,0,1-.18,2.83A1.93,1.93,0,0,0,2.52,89c.55.4.52.89.23,1.52a3.14,3.14,0,0,0-.23,1,15.86,15.86,0,0,0,0,2c0,.55.21,1.09.24,1.63,0,.76,0,1.52,0,2.27,0,1.53,0,1.53,1.6,1.6a.84.84,0,0,1,.39,0c.16.08.38.2.42.35.15.52.52,1,.36,1.61a1.7,1.7,0,0,0,.07.77,3.15,3.15,0,0,1,.14,1.44,1.9,1.9,0,0,0,.41,1.14,1.78,1.78,0,0,1,.35,1.27,2.58,2.58,0,0,0,.23,2,3.65,3.65,0,0,1,.66,2.13,3.24,3.24,0,0,0,.35,1.52,7.82,7.82,0,0,1,1,3.15,1.88,1.88,0,0,0,.41.76,2.26,2.26,0,0,0,.8.57,1.14,1.14,0,0,1,.7,1.27c0,.93.08,1,.91,1.4a5.86,5.86,0,0,1,.86.62c-.58.17-1.1.07-1.21.8a3.8,3.8,0,0,0,.89.85,1.36,1.36,0,0,1,.91,1.56,1.92,1.92,0,0,0,.73,1.84,2.7,2.7,0,0,1,.58.88c.26.48.49,1,.74,1.48s.47.87.69,1.31a2.73,2.73,0,0,0,1.28,1.54,2.07,2.07,0,0,1,1.38,1.88A.71.71,0,0,0,19,132a1.71,1.71,0,0,1,1.13,1.16,7.49,7.49,0,0,0,2.14,3A16.86,16.86,0,0,1,25,139.51c.21.33.29.88.57,1,1,.39,1.27,1.23,1.7,2a20.49,20.49,0,0,0,1.45,2.32,2.23,2.23,0,0,0,1,.69c.57.18,1.2.2,1.79.34a1.22,1.22,0,0,1,.55.39c.27.29.49.62.74.92.1.12.26.32.33.29.44-.16.6.21.83.41a2.89,2.89,0,0,0,2.08.76,3.68,3.68,0,0,1,2.51,1.06,8.06,8.06,0,0,0,3.36,2.35,3.61,3.61,0,0,1,1,.46c.65.49,1.64.45,2,1.33,0,.07.32,0,.48,0,.44.11.88.24,1.31.38l1,.33c.28.09.57.15.85.21a3.63,3.63,0,0,0,1,.21,3.15,3.15,0,0,1,2.57.92c.64-.45,1.1-.57,1.48-.37s.77.48,1.18.64a5.4,5.4,0,0,0,3.36.4.88.88,0,0,1,1.1.36,1.49,1.49,0,0,0,1.53.61,1.4,1.4,0,0,1,.86.14,3.87,3.87,0,0,0,2,.76A4.51,4.51,0,0,1,67,159.63c1-.52,1-.52,2.27.1a.55.55,0,0,0,.28.06,4,4,0,0,1,2.36.31c.41.22,1,.09,1.41.55.61-.25,1,.26,1.63.43.24-.46.61-.4,1-.19a1.52,1.52,0,0,0,1.6-.06,1.74,1.74,0,0,1,1.78-.09,5.86,5.86,0,0,0,1.53.32,9.42,9.42,0,0,1,1.51.32c.64.23.88-.52,1.42-.5.32,0,.64-.07,1-.09a3.47,3.47,0,0,1,2.08.7,6,6,0,0,1,.83-.36,8.05,8.05,0,0,1,3.62-.18,4.62,4.62,0,0,0,3-.22,2.64,2.64,0,0,1,.86-.1,9.36,9.36,0,0,0,2.33-.25,16.39,16.39,0,0,1,3.83-.89,2,2,0,0,0,1.67-.92,1.22,1.22,0,0,1,1.21-.66,1.51,1.51,0,0,0,1.14-.43,2.2,2.2,0,0,1,1.73-.78c1.6-.13,3.21-.29,4.81-.43a4,4,0,0,1,.59,0,8.73,8.73,0,0,0,1.35.07c1.31-.11,2.62-.3,3.93-.41a1.76,1.76,0,0,0,1.37-.68c.8-1.2,2-1.46,3.31-1.76a9.91,9.91,0,0,0,1.25-.46,25.25,25.25,0,0,1,3.06-1.16,3,3,0,0,0,1.72-1,1.82,1.82,0,0,1,.59-.49.87.87,0,0,0,.55-1,3,3,0,0,1,.48-1.82c1.23-.13,1.24-.12,2-.77a6.43,6.43,0,0,0,.64-.73,1.84,1.84,0,0,1,1.53-.72c1.2,0,2.41-.16,3.61-.26a5.71,5.71,0,0,1,3.66-3.9,6,6,0,0,1-.56-.23,3.3,3.3,0,0,1-.3-.22c.51-.75.6-.77,1.43-.41-.11.26-.21.53-.33.84a2.58,2.58,0,0,0,1.74-.35c-.46-.77-.48-1,0-1.21.84-.38,1.72-.66,2.58-1l.6-.23c-.27-.42-.63-.73-.64-1.05a1.83,1.83,0,0,1,1.68-2c.77-.16,1.56-.27,2.34-.4A2.65,2.65,0,0,0,152,134a2.21,2.21,0,0,1,1.46-.94,17,17,0,0,0,1.87-.61l-.1-1.15c.79.17.46.72.47,1.18l1.72,0c0-.51.21-1,.77-.92a2.67,2.67,0,0,0,2-.85,1.61,1.61,0,0,1,2.2-.06,2,2,0,0,0,1.2.26,5.08,5.08,0,0,0,1.41-.42,3.06,3.06,0,0,1,2.56-.15c.54.23,1,0,1.42-.54a5.9,5.9,0,0,0-.75-.24,6.58,6.58,0,0,0-3.38.31,3.42,3.42,0,0,1-1.82.08c-.07-.61.38-.82.72-1a9,9,0,0,0,1.72,0c.52,0,1-.13,1.56-.2l1.15-.18a4.61,4.61,0,0,1,1-.09,2.56,2.56,0,0,0,2.28-.67.83.83,0,0,1,1-.27,3.73,3.73,0,0,0,3.13-.13c.24-.1.51-.14.75-.25a13.68,13.68,0,0,0,3-1.71A1.73,1.73,0,0,0,177.64,125.06ZM114.57,3.76c-.4.15-.69.36-.86.29a22.66,22.66,0,0,1-3.26-1.65C111.82,2.63,113.31,2.42,114.57,3.76ZM9.72,56.67C9.4,56,9.2,55.54,9,55l1.16-.93.93,1.08Zm28,44.6a1.75,1.75,0,0,1,1,1.94,1.16,1.16,0,0,0,.61,1.32,4.93,4.93,0,0,1,1.27,1.18,8.54,8.54,0,0,0,1.86,2c.37.28.77.65.61,1.24s-.59.72-1,.35c-1-1-2.17-1.82-2.55-3.3a2.48,2.48,0,0,0-1.12-1.55c-.67-.41-.65-1.17-.72-1.85A11.62,11.62,0,0,1,37.76,101.27Zm-.9-1c-.48-.67-1.18-1.16-1-2.11C37,98.21,37.42,99.06,36.86,100.24Zm-1.74-5a.73.73,0,0,1,.93.48c.08.47.6,1,0,1.5a1.45,1.45,0,0,1-1.2-1A.76.76,0,0,1,35.12,95.26Zm-1.43-3.48a2.29,2.29,0,0,1,.59.53,3.29,3.29,0,0,1,.37,2.39c-.16-.12-.36-.18-.43-.31-.27-.59-.49-1.2-.76-1.78A.55.55,0,0,1,33.69,91.78Zm-1.62-4.14A13.14,13.14,0,0,0,32.35,89c-.12.2-.15.7-.74.65-.24-.53-.48-1-.69-1.57s-.05-.89.5-1.3C31.87,86.88,32,87.2,32.07,87.64Zm-.79-3.55a1.9,1.9,0,0,1-.92,1.82c-.71-.67-.25-1.57-.53-2.34C30.54,83.21,30.8,83.85,31.28,84.09ZM27.09,62.2A2.51,2.51,0,0,1,29,65.12c-.18.81-.28,1.63-.49,2.43a6.58,6.58,0,0,1-.72,1.28c-.28-.56-.56-.84-.57-1.13C27.11,65.89,27.11,64.08,27.09,62.2ZM35,111.8a.69.69,0,0,1-.53-.06,5.44,5.44,0,0,1-1.2-1.14c-.85-1.32-1.63-2.68-2.39-4-.31-.57-.51-1.19-.78-1.79a14.78,14.78,0,0,0-.67-1.39c-.51-.87-1.07-1.72-1.59-2.59-.41-.66-.32-1.21.36-1.56a1.11,1.11,0,0,0,.59-.81c.12-.47.34-1,1-1,.52,1,1.48,1.76,1.12,3.06a2.47,2.47,0,0,0-.93.16,1.15,1.15,0,0,0-.5.74c0,.16.34.44.58.53a1.22,1.22,0,0,0,.78,0c.65-.23,1,.12,1.28.61a5.85,5.85,0,0,0,3.85,3.08,1.83,1.83,0,0,1,.24.15,2.46,2.46,0,0,0-.28.46c-.3.83,0,1.33.84,1.54,1.18.28,1.51.69,1.66,2.1L38,110c-.47.09-.71.4-.56.81a5.41,5.41,0,0,0,.51.95c.28.44.58.86.93,1.38l-1.2.56-1-1.16C36.25,112,35.78,111.54,35,111.8Zm5.8,8.33c-.22-.07-.43-.18-.64-.26a2.13,2.13,0,0,0-1.81.1c-1.15.58-1.59.3-1.76-1.12l1-.65a5.84,5.84,0,0,1-.48-1.1.84.84,0,0,1,.6-1.07.89.89,0,0,1,1.13.56,1.58,1.58,0,0,0,1.34,1.33.73.73,0,0,1,.32.24,7,7,0,0,0,.66.77,5.77,5.77,0,0,0,.93.54C41.69,120.34,41.63,120.38,40.81,120.13Zm1.89-3.49a3.65,3.65,0,0,1-1.38-1.84,2.26,2.26,0,0,0-1.06-1.36,2.15,2.15,0,0,1-1.06-1.24,8.27,8.27,0,0,1-.52-2c.17.11.35.2.51.32.35.27.64.69,1,.83,1.08.38,1.42,1.27,1.81,2.21a25.05,25.05,0,0,0,1.39,2.67c.08.16.3.24.49.38A.82.82,0,0,1,42.7,116.64Zm4.77.23a1.11,1.11,0,0,1-.51.1c-.08,0-.21-.08-.22-.15-.19-.78-.83-1.28-1.19-1.95a.84.84,0,0,1,.16-1.14.79.79,0,0,1,1.12.22,2.48,2.48,0,0,0,.55.42,3,3,0,0,1-.14.74,1.06,1.06,0,0,0,.16,1.35A.54.54,0,0,1,47.47,116.87Z"></path><path class="cls-1" d="M123.15,137.69A1.77,1.77,0,0,0,122,138c-.25.06,0,0-.44.18a3.38,3.38,0,0,0-.63.36s-.25.22-1,.12l-.75,0-.15,0c-1-.14-.65-.42-1.41-.08s-.48.53-1.54.37a4.06,4.06,0,0,0-1.51-.07,2.73,2.73,0,0,0-1.09.2c-.44.13-1.17.3-.37.27s.7-.2,1.33,0,.43.3,1,.46.6.34,1.23,0,1-.5,1-.5a3.91,3.91,0,0,0,1.76,0c1-.15,1.36-.26,1.36-.26l1.09-.43.26-.12a.66.66,0,0,0,.22.12c.35-.42.69-.07,1,0l.53-.49C123.78,137.63,123.43,137.68,123.15,137.69Z"></path><path class="cls-1" d="M62.4,115.28a2.19,2.19,0,0,0-.59-.46,5.79,5.79,0,0,0-.73-.23c-.07.86,0,1.16.51,1.46a3.94,3.94,0,0,0,1.13.55,10.84,10.84,0,0,1,2.39.8,1.4,1.4,0,0,0,1.43.06,1.52,1.52,0,0,0-.18-.28,3,3,0,0,0-1.67-.78A3.6,3.6,0,0,1,62.4,115.28Z"></path><path class="cls-1" d="M71.6,118.8c-.42,0-.83-.06-1.25-.12a4.89,4.89,0,0,0-.64-.14.59.59,0,0,0-.45.27c-.11.24,0,.44.29.51a1.63,1.63,0,0,0,.43.08,1.92,1.92,0,0,1,1.37.44c.11.11.32.1.43.13.43,0,.7-.17.74-.45a.67.67,0,0,0-.55-.7C71.85,118.8,71.72,118.81,71.6,118.8Z"></path><path class="cls-1" d="M57,110.82c.45.94.88,1.19,1.73,1C58.5,110.82,57.77,110.43,57,110.82Z"></path><path class="cls-1" d="M75.18,121.4c.28,0,.46-.1.44-.53l-1.07-.22C74.55,121.28,74.89,121.35,75.18,121.4Z"></path><path class="cls-1" d="M81,122.67c.47.3.68.34.79.14a.34.34,0,0,0,0-.33C81.45,122.24,81.2,122.3,81,122.67Z"></path><path class="cls-1" d="M78.91,122.47c.09,0,.16-.17.31-.34l-1-.27C78.57,122.4,78.68,122.51,78.91,122.47Z"></path><path class="cls-1" d="M38.92,81.33c.32,1,.61,2,1,3a5.77,5.77,0,0,1,.3,1.08c.12.78.33,1.54.51,2.31a.54.54,0,0,0,.1.2c.62,1.31,1.24,2.61,1.85,3.92a6.4,6.4,0,0,0,1.31,2,3.27,3.27,0,0,1,.9,1.46,2.43,2.43,0,0,0,.78,1.26,4.28,4.28,0,0,1,1,1.17,11.66,11.66,0,0,1,.68,1.53,8.62,8.62,0,0,0,1.24,2.06c.61.79,1.48,1.41,1.68,2.5a.77.77,0,0,0,.25.38c.37.36.77.7,1.14,1.08a7.75,7.75,0,0,1,2.23,2.77,1.09,1.09,0,0,0,.34.49,2.32,2.32,0,0,0,.85.35c.15,0,.34-.19.52-.31-.17-.2-.26-.41-.4-.46-.71-.26-.93-.92-1.28-1.5a5.28,5.28,0,0,0-1.09-1.42,9.17,9.17,0,0,1-1.52-1.65c-.5-.69-.87-1.48-1.31-2.22-.09-.15-.2-.28-.3-.43-.33-.53-.68-1.06-1-1.6-.17-.28-.26-.61-.41-.9a41.2,41.2,0,0,0-2.71-4.28,8.29,8.29,0,0,1-1-2.12A5.39,5.39,0,0,0,44,90.87a4.54,4.54,0,0,1-1.06-2,2.89,2.89,0,0,0-.54-1.08c-.44-.71-1.17-1.27-1.06-2.27,0-.08-.07-.18-.13-.26a5.86,5.86,0,0,1-.79-1.79A6.73,6.73,0,0,1,40,81.57a3.24,3.24,0,0,0-.21-1c-.21-.58-.49-1.15-.72-1.73a4.09,4.09,0,0,1-.34-1.62,2.58,2.58,0,0,0-.37-1.45,3.71,3.71,0,0,1-.45-2.32A3.86,3.86,0,0,0,37.8,72a6.9,6.9,0,0,1-.25-1.79,4,4,0,0,0-.06-.69c-.12-.8-.47-1-1.18-.5,0,.24,0,.49.08.62a1.9,1.9,0,0,1,.26,1.18,3.32,3.32,0,0,0,.18,1.43A3.76,3.76,0,0,1,37.07,75a.66.66,0,0,0,0,.44,3.18,3.18,0,0,1,.23,1.18c.11.84.15,1.73,1.07,2.17a.58.58,0,0,1,.27.41c0,.66.5,1.27.19,2C38.82,81.17,38.89,81.26,38.92,81.33Z"></path><path class="cls-1" d="M37,62.21a.93.93,0,0,0-.68.93c0,.74,0,1.47.09,2.21,0,.31.25.42.53.42a.43.43,0,0,0,.44-.42c0-.28,0-.56,0-.84a3.62,3.62,0,0,1,0-1.19A.9.9,0,0,0,37,62.21Z"></path><path class="cls-1" d="M125.53,137c-.49.06-.33.13-.86.36l-.13,0c-.2.07-.1.3.13.33s.23,0,.56-.2.14,0,.77,0,.5-.13,1.06-.3-.1-.2-.56-.2A4.58,4.58,0,0,0,125.53,137Z"></path><path class="cls-1" d="M345.84,66.84V65.18H352v1.66h-2.08v5.28h-2V66.84Zm10.5-1.66,1,4,1-4h2.32v6.94h-1.48v-5l-1.22,5h-1.27l-1.22-5v5H354V65.18Z"></path><path class="cls-1" d="M202.85,104.22c0-.59,0-.93,0-.93V67.41H190.73v35.18L169.86,72.7s-6.68-11-16.14-6.11c-6.75,3.46-6.06,12.86-6.06,12.86V119h12.59v-4.82h-.47V79.45h0s14.8,21.82,20.18,29.69c1.08,1.58,5.78,8.67,11.35,8.67a12,12,0,0,0,5.77-1.53c4.24-2.26,5.78-7.65,5.77-10.58h0Z"></path><polygon class="cls-1" points="210.32 67.53 210.32 78.65 235.7 78.65 235.7 119 247.64 119 247.64 67.53 210.32 67.53"></polygon><path class="cls-1" d="M302.38,95c3-2.23,5.87-5.3,5.87-11.42,0-15.67-15-15.67-15.86-15.67h-36V78.79h35.23c2.63,0,5.56.8,5.74,4.44a1.33,1.33,0,0,1,0,.17c0,4-4.84,4.21-6.3,4.21H256.4V119H267V98.36h18.91c7.69,0,9.85,5.87,9.85,10.15V119h12.54V106.4A14.24,14.24,0,0,0,302.38,95Z"></path><path class="cls-1" d="M356.17,119H368.6S338.66,75.9,336.74,73.58c-1.26-1.53-4.18-6.5-9.83-6.5-7.86,0-10.77,6.81-10.77,12.88v39h10.32V106.82h21.3ZM326.36,96.2V83c0-2.65,1.94-3.6,2.84-2.54S339,92.55,339,92.55l3,3.65Z"></path><path class="cls-1" d="M129.21,67H98.83c-5.55,0-10,5.4-10,10.95v31A10.28,10.28,0,0,0,99.16,119h28.6c6,0,11.54-4.53,11.54-10.08V77.53C139.3,72,134.76,67,129.21,67Zm-1.59,35.56c0,1.85-1.72,4.31-4,4.31H104.87c-1.85,0-3.9-1.51-3.9-3.36V82.34a4.2,4.2,0,0,1,3.83-3.8h19c1.85,0,3.78,1.52,3.78,3.36Z"></path></svg>
