<?xml version="1.0" encoding="UTF-8" standalone="no"?>
<svg
   fill="none"
   viewBox="0 14 1581 423.15832"
   version="1.1"
   id="svg15"
   sodipodi:docname="FortniteLogo2.svg"
   width="1581"
   height="423.15833"
   inkscape:version="1.3.2 (091e20ef0f, 2023-11-25)"
   xmlns:inkscape="http://www.inkscape.org/namespaces/inkscape"
   xmlns:sodipodi="http://sodipodi.sourceforge.net/DTD/sodipodi-0.dtd"
   xmlns="http://www.w3.org/2000/svg"
   xmlns:svg="http://www.w3.org/2000/svg">
  <defs
     id="defs15" />
  <sodipodi:namedview
     id="namedview15"
     pagecolor="#ffffff"
     bordercolor="#000000"
     borderopacity="0.25"
     inkscape:showpageshadow="2"
     inkscape:pageopacity="0.0"
     inkscape:pagecheckerboard="0"
     inkscape:deskcolor="#d1d1d1"
     inkscape:zoom="0.15812777"
     inkscape:cx="790.5"
     inkscape:cy="208.692"
     inkscape:window-width="1280"
     inkscape:window-height="729"
     inkscape:window-x="0"
     inkscape:window-y="0"
     inkscape:window-maximized="1"
     inkscape:current-layer="svg15" />
  <g
     id="g1"
     transform="matrix(6.5128733,0,0,6.5128733,0,-77.180226)">
    <path
       fill-rule="evenodd"
       clip-rule="evenodd"
       d="m 145.127,17.0704 h 13.103 l 0.397,54.5203 -10.984,0.971 -9.723,-23.4508 0.784,21.4951 H 125.812 V 19.9313 l 11.265,-2.2805 10.003,24.8191 z"
       fill="#000000"
       id="path1" />
    <path
       fill-rule="evenodd"
       clip-rule="evenodd"
       d="M 233.312,62.9455 V 77.385 L 209.094,75.6367 V 16.9043 l 24.218,-1.9902 v 15.6316 l -10.387,0.3939 v 8.6243 h 8.828 V 52.0753 H 223.15 V 62.949 h 10.162 z"
       fill="#000000"
       id="path2" />
    <path
       fill-rule="evenodd"
       clip-rule="evenodd"
       d="M 23.371,52.3671 23.634,38.6913 H 14.256 V 28.0698 H 25.057 L 26.37,14 H 0 V 78.9726 L 14.263,76.312 V 52.3671 Z"
       fill="#000000"
       id="path3" />
    <path
       fill-rule="evenodd"
       clip-rule="evenodd"
       d="m 42.801,17.9376 c -13.911,0 -17.207,12.273 -17.207,27.4139 0,15.1374 3.569,27.4139 17.207,27.4139 13.638,0 17.207,-12.273 17.207,-27.4139 0,-15.1409 -3.3,-27.4139 -17.207,-27.4139 z m -0.121,43.892 c -1.862,0 -2.184,-7.3182 -2.184,-16.3503 0,-9.0285 0.263,-16.3502 2.184,-16.3502 1.921,0 2.18,7.3217 2.18,16.3502 0,9.0321 -0.325,16.3503 -2.18,16.3503 z"
       fill="#000000"
       id="path4" />
    <path
       fill-rule="evenodd"
       clip-rule="evenodd"
       d="m 88.489,50.884 c 0,0 6.037,-3.9978 6.037,-14.056 0,-10.0617 -6.731,-18.7654 -15.414,-18.7654 h -17.19 v 53.5321 h 13.489 l 0.57,-16.8029 5.47,18.7586 14.066,-1.1782 z M 75.598,45.0273 V 30.1801 c 0,0 4.253,-0.4526 4.253,7.1731 0,7.6292 -4.253,7.6776 -4.253,7.6741 z"
       fill="#000000"
       id="path5" />
    <path
       fill-rule="evenodd"
       clip-rule="evenodd"
       d="m 94.914,18.125 29.276,2.3427 v 13.6759 h -7.764 V 71.2668 H 102.36 V 31.8009 h -7.446 z"
       fill="#000000"
       id="path6" />
    <path
       fill-rule="evenodd"
       clip-rule="evenodd"
       d="m 177.675,22.2858 29.695,-1.5514 v 13.6828 h -7.999 v 40.3677 h -14.06 V 35.9617 h -7.639 V 22.2858 Z"
       fill="#000000"
       id="path7" />
    <path
       d="m 175.986,19.6016 h -14.47 v 53.5322 h 14.47 z"
       fill="#000000"
       id="path8" />
    <path
       d="m 235.508,74.3298 c 0,-2.1249 1.603,-3.7282 3.617,-3.7282 2.022,0 3.625,1.6033 3.625,3.7282 0,2.125 -1.603,3.7282 -3.625,3.7282 -2.014,0 -3.617,-1.6032 -3.617,-3.7282 z m 6.565,0 c 0,-1.7552 -1.299,-3.0993 -2.948,-3.0993 -1.641,0 -2.94,1.3441 -2.94,3.0993 0,1.7553 1.299,3.0994 2.94,3.0994 1.649,0 2.948,-1.3441 2.948,-3.0994 z m -4.419,-1.928 h 1.71 c 0.846,0 1.347,0.4319 1.347,1.1713 0,0.6496 -0.366,1.0573 -0.901,1.1921 l 0.901,1.2093 v 0.2592 h -0.597 l -1.027,-1.3856 h -0.777 v 1.3856 h -0.646 v -3.8354 z m 1.713,1.8693 c 0.422,0 0.722,-0.2177 0.722,-0.6289 0,-0.4077 -0.304,-0.6046 -0.722,-0.6046 h -1.057 v 1.2335 z"
       fill="#000000"
       id="path9" />
  </g>
</svg>
