<?xml version="1.0"?>
<svg width="66" height="21" xmlns="http://www.w3.org/2000/svg" xmlns:svg="http://www.w3.org/2000/svg" version="1.1">
 <g class="layer">
  <title>Layer 1</title>
  <path d="m10.66,0.01c-4.43,-0.26 -8.45,3.99 -10.14,10.13c-1.44,5.25 0.1,10.59 4.78,10.68c4.31,0.09 8.2,-4.32 9.73,-10.24c1.55,-6.06 -1.09,-10.38 -4.37,-10.57zm-0.8,10.8c-1.58,4.1 -4.12,7.82 -5.31,7.82c-0.28,-0.02 -0.57,-0.03 -0.77,-0.35c-0.17,-0.25 -0.26,-0.63 -0.26,-1.15c0,-1.31 0.57,-3.52 1.76,-6.85c1.72,-4.81 3.86,-8.2 5.18,-8.26c0.16,0.03 0.3,-0.01 0.6,0.3c0.78,1.08 0.26,4.73 -1.2,8.49zm38.1,-10.66l-13.85,0c-1.4,2.16 -2.23,5.71 -2.23,5.71l2.86,0.02c0.21,-0.8 1.39,-2.98 1.39,-2.98l6.5,0c-0.44,1.94 -1.74,3.24 -2.53,4.26c-0.8,1.01 -3.64,4.43 -5.41,6.7c-2.27,2.94 -3.18,6.5 -3.18,6.5l5.41,0c0.44,-2.02 2.03,-4.6 2.53,-5.48c0.53,-0.92 2.89,-3.47 5.78,-7.37c2.89,-3.89 2.73,-7.36 2.73,-7.36zm18.3,0l-17.15,0c-0.1,2.82 -0.97,4.04 -0.97,4.04l10.25,0c0.5,-0.94 1.29,-0.94 1.29,-0.94l5.07,0c2.06,-1.77 1.51,-3.1 1.51,-3.1zm-19.1,7.29c0.26,1.27 0.8,1.7 1.23,1.98l0.12,-0.76l0.39,-1.65l3.21,0s-0.79,2.37 -1.94,3.49c-0.65,0.63 -1.19,0.55 -1.56,0.55l-4.84,0l-0.86,1.08l5.99,0s1.59,-0.04 2.24,-0.69c0.86,-0.87 2.52,-3.78 2.89,-4.36c0.36,-0.59 1.37,-0.72 1.87,-0.8c0.5,-0.08 1.16,-0.35 1.8,-1.22l-9.96,0s-0.79,1.3 -0.58,2.38zm-20.6,-7.43c-4.43,-0.26 -8.45,3.99 -10.14,10.13c-1.44,5.25 0.1,10.59 4.78,10.68c4.31,0.09 8.2,-4.32 9.73,-10.24c1.55,-6.06 -1.09,-10.38 -4.37,-10.57zm-0.8,10.8c-1.58,4.1 -4.12,7.82 -5.31,7.82c-0.28,-0.02 -0.57,-0.03 -0.77,-0.35c-0.17,-0.25 -0.26,-0.63 -0.26,-1.15c0,-1.31 0.57,-3.52 1.76,-6.85c1.72,-4.81 3.86,-8.2 5.18,-8.26c0.16,0.03 0.3,-0.01 0.6,0.3c0.78,1.08 0.26,4.73 -1.2,8.49z" fill="#000000" id="svg_2"/>
 </g>
</svg>