<?xml version="1.0" encoding="UTF-8"?>
<svg width="585.019" height="191.0043" version="1.1" xmlns="http://www.w3.org/2000/svg">
 <title>Gran Turismo logo (colour, square)</title>
 <g transform="translate(-8.662878 -858.5298)">
  <path d="m56.168 858.53c-2.8538 0.0879-4.9844 1.267-5.7188 3.375l-17.5 49.469c-0.27349 0.88044-1.179 5.1525 2.1562 5.1875h106.62c2.8538-0.0879 4.9531-1.2982 5.6875-3.4062l17.5-49.438c0.27349-0.88044 1.2103-5.1525-2.125-5.1875z" fill="#0a267c"/>
  <path d="m196.56 858.53c-2.8538 0.0879-4.9844 1.267-5.7188 3.375l-17.5 49.469c-0.27349 0.88044-1.179 5.1525 2.1562 5.1875h106.62c2.8538-0.0879 4.9531-1.2982 5.6875-3.4062l17.5-49.438c0.27349-0.88044 1.2103-5.1525-2.125-5.1875z" fill="#e00d23"/>
 </g>
 <style type="text/css">.st0{fill:#000;}</style>
 <g transform="translate(-456.9644 -719.3283)">
  <g transform="translate(488.45,286)">
   <path class="st0" d="m458.2098 614.1469c0-5.38118 3.26713-9.99361 11.53108-9.99361 8.45612 0 11.53107 4.61243 11.53107 9.99361 0 5.38116-3.26714 9.99359-11.53107 9.99359-8.26395 0-11.53108-4.61243-11.53108-9.99359zm4.22806 0c-0.19219 4.03587 3.07495 7.49519 7.11084 7.49519 4.03587 0.19219 7.49519-3.07495 7.49519-7.11083 0.19219-4.03588-3.07495-7.4952-7.11082-7.4952h-0.19219c-3.65152-0.38437-6.91865 2.30621-7.30302 5.95773zm-90.90334 1.34529v-10.76235h4.22806v10.76235c0 2.69058 0 5.76553 5.57335 5.76553 5.57337 0 5.57337-3.26713 5.57337-5.76553v-10.76235h4.03587v10.76235c0 3.07495-0.19218 8.6483-9.60924 8.6483-9.41704 0-9.80141-5.57335-9.80141-8.6483zm-67.26462 2.11403h4.42024c0.19218 2.49839 2.30621 3.6515 5.76555 3.6515 2.4984 0 4.80461-0.76874 4.80461-2.88277 0-4.61242-14.60603-0.57655-14.60603-8.45613 0-4.22806 4.03587-5.95772 8.64831-5.95772 3.07495 0 9.03267 0.57656 9.60923 5.95772h-4.42025c-0.19218-1.53747-1.53747-3.07495-4.99679-3.07495-2.6906 0-4.61245 0.76874-4.61245 2.69058 0 4.42026 14.60604 0.19219 14.60604 8.26395 0 4.9968-5.18898 6.1499-9.41704 6.1499-6.91866 0.19219-9.80142-2.49839-9.80142-6.34208zm-35.74635-3.45932c0-5.38118 3.45932-9.99361 11.53109-9.99361 5.95772 0 9.80141 2.88277 10.18578 6.72646h-4.42025c-0.96092-2.4984-3.26713-4.03588-5.95772-3.65151-5.18899 0-7.11084 3.07495-7.11084 7.11084-0.38437 3.45932 2.30622 6.53427 5.76554 6.91864h1.15312c4.22806 0 6.1499-1.92184 6.91864-4.9968h-5.57335v-2.88276h9.80141v10.37796h-2.88277v-2.4984c-1.92184 1.92185-4.80461 3.07495-7.49519 3.07495-8.45614-0.19218-11.72327-4.80461-11.91546-10.18577zm231.9669 9.60922v-2.88277c0-2.69058-0.38436-4.61243-3.45932-4.61243h-7.11082v7.4952h-4.22808v-19.02628h12.49201c4.9968 0 6.72647 2.30622 6.72647 5.18898 0.19218 2.11403-1.15311 4.03589-3.26715 4.61244 2.30623 0.38437 2.88278 2.4984 2.88278 5.18899v4.03587zm-10.57014-10.57015h7.11082c2.30622 0 3.45932-0.57655 3.45932-2.69059 0-1.92185-1.34529-2.69059-3.45932-2.69059h-7.11082zm-44.97122 10.57015v-15.95133h-7.30301v-2.88276h19.02628v2.88276h-7.49521v15.95133zm-11.53108 0-2.11403-4.61243h-9.22485l-2.11403 4.61243h-4.42026l8.8405-19.02628h4.9968l8.8405 19.02628zm-10.18578-7.68738h6.72646l-3.45932-8.07176zm-26.3293 7.68738v-19.02628h4.22807v15.95133h11.91544v3.07495zm-34.9776 0 0.19218-15.75914-7.30301 15.75914h-3.45932l-7.30303-15.75914 0.19219 15.75914h-3.84369v-19.02628h5.95772l6.91865 14.79822 6.91865-14.79822h5.95773v19.02628zm-32.86358 0v-19.02628h4.22807v19.02628zm-69.95521 0-11.91544-14.22167v14.22167h-4.03589v-19.02628h4.80463l11.72325 14.22167v-14.22167h4.03589v19.02628zm-26.52147 0v-19.02628h4.22806v19.02628zm-16.52788 0-8.8405-19.02628h4.61244l6.53427 15.18259 6.34209-15.18259h4.42026l-8.64832 19.02628zm-15.95133 0v-19.02628h4.22806v19.02628zm-9.41705 0v-2.88277c0-2.69058-0.38437-4.61243-3.45932-4.61243h-7.11083v7.4952h-4.22806v-19.02628h12.49199c4.99681 0 6.72647 2.30622 6.72647 5.18898 0.19219 2.11403-1.1531 4.03589-3.26715 4.61244 2.30623 0.38437 2.88278 2.4984 2.88278 5.18899v4.03587zm-10.57015-10.57015h7.11083c2.30621 0 3.45932-0.57655 3.45932-2.69059 0-1.92185-1.34529-2.69059-3.45932-2.69059h-7.11083zm-28.8277 10.57015v-19.02628h10.57016c7.68738 0 9.60922 4.22806 9.60922 9.60924 0 4.03587-1.92184 9.22486-8.6483 9.22486h-11.53108zm4.03587-3.07495h5.76555c3.07495 0 6.1499-0.96092 6.1499-6.53427 0-6.14992-4.03587-6.53429-6.34208-6.53429h-5.57337zm-32.67139 3.07495v-19.02628h4.22807v15.95133h11.91544v3.07495zm-8.26393 0-2.11403-4.61243h-9.22487l-2.11403 4.61243h-4.420242l8.840502-19.02628h4.99679l8.84049 19.02628zm-10.18579-7.68738h6.72647l-3.26714-8.07176zm-28.44332 7.68738v-19.02628h17.10443v2.88277h-13.06856v4.80462h12.492v2.88277h-12.492v5.38117h13.26074v2.88277zm-9.801422 0v-2.88277c0-2.69058-0.384369-4.61243-3.459321-4.61243h-7.110827v7.4952h-4.228071v-19.02628h12.492c4.996797 0 6.726458 2.30622 6.726458 5.18898 0.192184 2.11403-1.153107 4.03589-3.267137 4.61244 2.306214 0.38437 2.882768 2.4984 2.882768 5.18899v4.03587zm-10.37796-10.57015h7.110826c2.306215 0 3.459322-0.57655 3.459322-2.69059 0-1.92185-1.345292-2.69059-3.459322-2.69059h-7.110826zm-35.93853 10.57015v-19.02628h17.10443v2.88277h-13.06856v4.80462h12.492v2.88277h-12.492v5.38117h13.26074v2.88277zm-9.993607 0v-8.6483h-12.29982v8.6483h-4.228059v-19.02628h4.228059v7.30301h12.29982v-7.30301h4.228059v19.02628zm-31.51828 0v-15.95133h-7.495202v-2.88276h19.02628v2.88276h-7.495201v15.95133zm494.1067-66.3037c6.34209-20.56376 12.87636-33.63232 32.28702-33.63232 20.75594 0 17.10443 15.75914 11.53107 33.63232-5.57335 18.06535-11.53107 33.63231-32.28702 33.63231-19.21846 0.19218-17.87317-13.06855-11.53107-33.63231zm15.18259 0c-5.38118 17.87317-6.3421 23.44653-0.57656 23.44653 5.95772 0 8.64831-5.76555 14.02947-23.44653 5.38118-17.68099 6.3421-23.63871 0.38437-23.63871-5.76553 0-8.45612 5.76553-13.83728 23.63871zm-133.7605 16.72006 1.34529-4.22806h14.22167l-0.76874 2.30622c-1.53747 4.99679-1.34529 8.64831 3.84369 8.64831s7.87957-4.03589 9.03267-7.68739c4.22807-14.02948-24.98399-6.14991-17.4888-30.36517 3.07497-10.37797 11.14671-19.02629 26.3293-19.02629 14.60604 0 17.48881 7.6874 14.41385 17.68099l-0.38437 1.53749h-14.22166c0.96092-2.11404 1.15311-4.61244 0.76874-6.91866-0.38437-1.53747-1.53748-2.30621-3.84369-2.30621-3.65151 0-6.53429 2.30621-8.07177 6.91864-4.22805 13.45293 24.79183 6.72647 17.68099 29.59644-4.42024 14.79822-14.22166 20.56376-27.67458 20.56376-10.57016 0.38436-19.41065-3.07496-15.18259-16.72007zm-380.91-15.37477c6.534278-21.33249 12.10763-34.97761 32.86358-34.97761 19.02628 0 15.56696 13.64512 13.26074 20.94814h-14.22167c1.345292-4.22807 2.882768-10.76235-2.498399-10.76235-5.957732 0-8.648315 6.34209-14.02948 23.63871-5.38117 17.68099-6.342093 23.44654-0.384369 23.44654 4.996801 0 8.071752-4.80463 10.95452-13.64512l0.5765535-2.11403h-6.726458l3.074952-10.18579h20.56376l-10.57015 34.78542h-10.57016l1.921845-6.1499h-0.1921845c-3.651505 4.9968-9.609229 7.87956-15.75914 7.49519-15.56696 0-14.41385-12.10762-8.26394-32.4792zm262.5242 9.60924 13.26074-43.43374h14.60604l-14.60604 47.85398c-1.53747 4.99681-0.57655 8.07176 3.45932 8.07176 4.03588 0 6.72646-3.07495 8.26394-8.07176l14.60603-47.85398h14.79822l-13.26074 43.43374c-3.84369 12.68419-10.37796 22.67778-27.4824 22.67778-17.10443 0-17.4888-9.99359-13.64511-22.67778zm206.5985 21.52467 15.56696-50.54456h-0.19218l-24.98402 50.54456h-11.33888l5.38117-50.54456h-0.19219l-15.56696 50.54456h-13.06856l19.98722-64.95841h21.52467l-5.38117 42.665h0.19218l20.56377-42.665h21.14031l-19.98721 64.95841zm-114.7342 0 19.9872-64.95841h14.60603l-19.79502 64.95841zm-20.94813 0s1.15311-5.18898 2.88277-13.26074c2.69058-11.53107 1.92184-13.6451-2.69058-13.6451h-5.57335l-8.26395 26.90584h-14.60604l19.98722-64.95841h24.59963c12.492 0 14.22166 8.07176 11.53108 16.91225-2.88277 9.41705-8.07176 14.02948-15.37477 15.75914v0.19219c8.84048 1.34529 7.68738 7.30302 5.76553 16.14351-2.69058 12.87637-3.6515 15.75914-3.6515 15.75914zm-1.92184-37.66819h4.42024c5.95773 0 8.8405-4.61242 10.18579-8.45611 1.53748-4.80463 0.76874-8.26395-4.9968-8.26395h-4.42025zm-107.8156 37.66819 16.14352-52.4664h-13.06856l3.84369-12.29983h40.93533l-3.8437 12.29983h-13.06855l-16.14351 52.4664zm-55.34917 0 0.76874-44.77901h-0.19219l-13.64511 44.77901h-13.06856l19.79502-64.95841h16.91225l-0.76874 42.08844h0.19218l12.87638-42.08844h13.64511l-19.9872 64.95841zm-45.93213 0 1.537476-12.29981h-14.9904l-5.95772 12.29981h-15.18259l35.74634-64.95841h18.25754l-4.42024 64.95841zm-7.687393-24.21526h10.57016l3.459326-28.8277h-0.19219zm-45.35557 24.21526s1.153107-5.18898 2.882767-13.26074c2.690584-11.53107 1.921846-13.6451-2.690583-13.6451h-5.57335l-8.263946 26.90584h-14.60604l19.9872-64.95841h24.59964c12.49201 0 14.22167 8.07176 11.53107 16.91225-2.882768 9.41705-8.07175 14.02948-15.37476 15.75914v0.19219c8.840487 1.34529 7.68738 7.30302 5.765535 16.14351-2.690583 12.87637-3.459321 15.75914-3.459321 15.75914zm-2.11403-37.66819h4.612428c5.95772 0 9.032685-4.61242 10.18579-8.45611 1.537476-4.80463 0.768738-8.26395-4.99681-8.26395h-4.420244zm487.9568-14.60603c0-7.11083 5.57335-12.87637 12.68419-12.87637 7.11083 0 12.87637 5.57336 12.87637 12.68419s-5.57336 12.87637-12.68418 12.87637c-7.11084 0.19218-12.87638-5.57335-12.87638-12.68419zm2.30622 0c0 5.76555 4.61243 10.57016 10.37797 10.76234 5.76554 0.19219 10.57015-4.61242 10.76234-10.37797 0-5.76554-4.61243-10.57015-10.37797-10.76233-5.95773-0.19219-10.76234 4.61242-10.76234 10.37796zm13.45293 7.30302c-0.19219-0.96092-0.38437-1.72966-0.57656-2.69059 0-1.15311-0.19218-2.30622-0.96092-3.26714-0.57655-0.57655-1.34529-0.57655-2.11403-0.57655h-1.92186v6.53428h-2.30621v-14.9904h4.80462c2.69059 0 5.57335 0.76874 5.57335 4.22806 0 1.72966-1.34529 3.26714-3.07495 3.45932 2.11403 0.38437 2.30622 1.34529 2.4984 2.88277 0.19218 1.53747 0.38437 2.88278 0.96092 4.22807zm-5.57337-8.8405h2.49841c2.30622 0 2.69059-0.96092 2.69059-2.11403 0-1.1531-0.57656-1.72966-2.30622-1.72966h-2.88278z" stroke-width="1.92185"/>
  </g>
 </g>
</svg>