<svg version="1.1" id="ÉåÉCÉÑÅ_x5B__x5F_1" xmlns="http://www.w3.org/2000/svg" x="0px" y="0px" viewBox="0 0 409.9 101.4" style="enable-background:new 0 0 409.9 101.4;" xmlns:xlink="http://www.w3.org/1999/xlink" xml:space="preserve" data-inject-url="https://cdn.shopify.com/s/files/1/0014/1962/t/53/assets/logo-metal-gear-solid.svg?v=10434199076850001521" class="injectable">

<g>
	<g>
		<path class="st0" d="M46.3,4H58l-0.4,1.8h-3.8l-1.1,4.9h-4.2l1.2-4.9h-3.8L46.3,4z"></path>
		<path class="st0" d="M57.4,10.6l6.1-6.7h4.2l3,6.7h-4.2l-0.1-0.8h-4.2l-0.7,0.9L57.4,10.6L57.4,10.6z M65.2,6l-1.9,2.4H66L65.2,6z
			"></path>
		<path class="st0" d="M81.4,6.5c0-0.7-0.7-1.1-2-1.1c-1.5,0-2.5,0.7-2.8,1.9c-0.2,0.9,0,1.8,2.1,1.8c1.4,0,2.1-0.5,2.4-1.1h4
			c-0.7,1.8-3.3,2.8-6.7,2.8c-4.2,0-6.5-1.4-5.9-3.5c0.4-2.2,3.6-3.5,7.1-3.5c3.9,0,5.8,1,5.8,2.7H81.4z"></path>
		<path class="st0" d="M88.1,4h11.7l-0.4,1.8h-3.8l-1.2,4.9h-4.2l1.2-4.9h-3.8L88.1,4z"></path>
		<path class="st0" d="M101,10.6l1.6-6.7h4.2l-1.6,6.7H101z"></path>
		<path class="st0" d="M117.6,6.5c0-0.7-0.7-1.1-2-1.1c-1.5,0-2.5,0.7-2.8,1.9c-0.2,0.9,0,1.8,2.1,1.8c1.4,0,2.1-0.5,2.4-1.1h4
			c-0.8,1.8-3.4,2.8-6.8,2.8c-4.2,0-6.5-1.4-5.9-3.5c0.5-2.2,3.6-3.5,7.2-3.5c3.9,0,5.8,1,5.8,2.7H117.6z"></path>
		<path class="st0" d="M121.9,10.6l6.1-6.7h4.3l3,6.7h-4.2l-0.2-0.8h-4.2l-0.7,0.8H121.9z M129.7,6l-1.9,2.4h2.6L129.7,6z"></path>
		<path class="st0" d="M137.8,10.6l1.6-6.7h4.2L142.4,9h5.7l-0.4,1.6H137.8z"></path>
		<path class="st0" d="M160,10.6l1.6-6.7H172l-0.4,1.6h-6.2l-0.2,0.9h5.3L170.1,8h-5.3l-0.2,1h6.5l-0.4,1.5H160V10.6z"></path>
		<path class="st0" d="M181.3,5.9c0-0.2-0.2-0.4-0.5-0.5s-0.6-0.1-1.1-0.1c-0.9,0-1.4,0.1-1.4,0.4c-0.2,1,7.3,0.4,6.7,2.8
			c-0.4,1.6-3,2.3-6.5,2.3c-3.4,0-5.3-1-5.1-2.2h4c0,0.2,0.2,0.4,0.6,0.5c0.3,0.1,0.7,0.2,1.1,0.2c1.1,0,1.8-0.2,1.9-0.5
			c0.2-1-7.3-0.3-6.7-2.9c0.3-1.4,2.8-2.1,6-2.1c3.5,0,4.9,0.9,5,2.1H181.3z"></path>
		<path class="st0" d="M187,10.6l1.6-6.7h6.2c3.7,0,5.2,0.9,4.9,2.2c-0.3,1.4-2.2,2.3-5.8,2.3h-2.1l-0.5,2.1H187V10.6z M193.8,7
			c1,0,1.7-0.2,1.9-0.8c0.1-0.6-1.2-0.7-2.1-0.7h-1.2L192,7H193.8z"></path>
		<path class="st0" d="M201.1,10.6l1.6-6.7h4.2l-1.6,6.7H201.1z"></path>
		<path class="st0" d="M222.4,7.3c-0.5,2.3-3.8,3.5-7.5,3.5c-4,0-6.4-1.3-5.8-3.6c0.5-2.1,3.5-3.5,7.5-3.5
			C221,3.8,222.8,5.5,222.4,7.3z M213.2,7.3c-0.2,0.9,0,1.9,2,1.9c1.8,0,2.7-0.8,3-1.9c0.2-0.9-0.3-1.9-2.1-1.8
			C214.2,5.4,213.3,6.4,213.2,7.3z"></path>
		<path class="st0" d="M233.5,7.6l0.2-1.5l0.5-2.1h4l-1.6,6.7h-3.9L229,7.1l-0.2,1.5l-0.5,2.1h-4l1.6-6.7h3.9L233.5,7.6z"></path>
		<path class="st0" d="M239,10.6l6.1-6.7h4.3l3,6.7h-4.2l-0.3-0.8h-4.2l-0.7,0.9L239,10.6L239,10.6z M246.7,6l-1.9,2.4h2.6L246.7,6z
			"></path>
		<path class="st0" d="M266.7,10.7H264V10c-0.8,0.4-2,0.8-4,0.8c-3.3,0-5.9-1.1-5.4-3.4c0.5-2.1,3.4-3.6,7.5-3.6
			c3.1,0,5.3,0.8,5.5,2.5h-4c-0.2-0.5-0.9-0.8-2-0.8c-1.6,0-2.6,0.8-2.9,1.9c-0.2,0.9,0.1,1.8,2.2,1.8c0.9,0,2-0.3,2.3-0.8h-1.9
			l0.3-1.4h5.7L266.7,10.7z"></path>
		<path class="st0" d="M270.1,10.6l1.6-6.7h10.4l-0.4,1.6h-6.2l-0.2,0.9h5.3L280.2,8h-5.3l-0.3,1h6.5l-0.4,1.5h-10.6L270.1,10.6
			L270.1,10.6z"></path>
		<path class="st0" d="M293.6,10.6l6.1-6.7h4.3l3,6.7h-4.2l-0.2-0.8h-4.2l-0.7,0.9L293.6,10.6L293.6,10.6z M301.4,6l-1.9,2.4h2.6
			L301.4,6z"></path>
		<path class="st0" d="M317.6,6.5c0-0.7-0.7-1.1-2-1.1c-1.5,0-2.5,0.6-2.8,1.9c-0.2,0.9,0,1.8,2.1,1.8c1.3,0,2.1-0.5,2.4-1.1h4
			c-0.8,1.8-3.4,2.8-6.7,2.8c-4.2,0-6.4-1.3-5.9-3.5s3.6-3.5,7.2-3.5c3.9,0,5.8,1,5.8,2.7H317.6z"></path>
		<path class="st0" d="M324.2,4h11.7l-0.4,1.7h-3.8l-1.2,4.9h-4.2l1.2-4.9h-3.8L324.2,4z"></path>
		<path class="st0" d="M337.1,10.6l1.6-6.7h4.2l-1.6,6.7H337.1z"></path>
		<path class="st0" d="M358.4,7.3c-0.5,2.3-3.8,3.5-7.5,3.5c-4,0-6.4-1.3-5.8-3.6c0.5-2.1,3.5-3.4,7.5-3.4
			C357.1,3.8,358.9,5.5,358.4,7.3z M349.2,7.3c-0.2,0.9,0,1.9,2.1,1.9c1.8,0,2.7-0.8,3-1.9c0.2-0.9-0.3-1.9-2.1-1.8
			C350.2,5.4,349.4,6.4,349.2,7.3z"></path>
		<path class="st0" d="M369.6,7.6l0.2-1.5l0.5-2.1h4l-1.6,6.7h-3.9l-3.7-3.6L365,8.5l-0.5,2.1h-4l1.6-6.7h3.9L369.6,7.6z"></path>
	</g>
	<g>
		<path class="st0" d="M108.2,16H74.6L72,27.3h33.6L108.2,16z"></path>
		<polygon class="st0" points="101.8,44.1 104.5,32.5 70.8,32.5 63.6,64.3 97.2,64.3 99.8,52.8 79.6,52.8 81.6,44.1 		"></polygon>
		<path class="st0" d="M316.5,16h-33.6l-2.6,11.3h33.6L316.5,16z"></path>
		<polygon class="st0" points="310.1,44.1 312.7,32.5 279.1,32.5 271.8,64.3 305.5,64.3 308.1,52.8 287.8,52.8 289.9,44.1 		"></polygon>
		<polygon class="st0" points="53.1,16 37,45.6 36.6,16 21.7,16 6,84.9 18,84.9 28.1,38.3 28.7,64.3 37.5,64.3 51.2,38.4 44.5,64.3 
			58,64.3 69,16 		"></polygon>
		<polygon class="st0" points="149.8,16 111.8,16 109.2,27.3 121.7,27.3 113.2,64.3 126.6,64.3 135,27.3 147.2,27.3 		"></polygon>
		<g>
			<path class="st0" d="M349.4,16H334l-6.3,11.3h22.9L349.4,16z"></path>
			<polygon class="st0" points="341,64.3 354.4,64.3 351.1,32.5 324.7,32.5 306.9,64.3 320.6,64.3 331.9,44.1 338.9,44.1 			"></polygon>
		</g>
		<polygon class="st0" points="182.8,64.3 193.8,16 207.2,16 198.8,52.8 219.1,52.8 216.4,64.3 		"></polygon>
		<polygon class="st0" points="277,16 274.4,27.3 250.7,27.3 240.8,38.9 245.3,52.8 255.2,52.8 257.2,44.1 247.1,44.1 249.7,32.5 
			273.2,32.5 265.9,64.3 234.6,64.3 226.2,38.5 245.4,16 		"></polygon>
		<polygon class="st0" points="175.3,16 159.9,16 153.6,27.3 176.5,27.3 		"></polygon>
		<polygon class="st0" points="132.9,64.3 150.7,32.5 177,32.5 180.3,64.3 166.9,64.3 164.9,44.1 157.8,44.1 146.5,64.3 		"></polygon>
		<path class="st0" d="M389.6,84.9h14.1l-13.6-41.6c6.3-1.7,10.7-6.6,11.8-13c0.6-4.1-0.2-7.9-2.5-10.5c-2.1-2.4-5-3.7-8.6-3.7
			h-22.7l-2.6,11.3h23.2c0.6,0,1.2,0.2,1.5,0.6s0.5,1,0.3,1.7c-0.3,1.5-1.9,2.8-3.4,2.8h-22.7l-7.3,31.8h13.4l4.6-20.2h2L389.6,84.9
			z"></path>
	</g>
	<path class="st0" d="M22.1,84.8l3.2-15.2h355.4l4.4,15.2H22.1z M134.4,74.7c0.1-1.9-1.1-3.4-4.7-3.4c-3.2,0-5.8,1.1-6.4,3.4
		c-1,4.1,6.7,3,6.3,4.6c-0.1,0.5-0.9,0.8-1.9,0.8c-0.4,0-0.8-0.1-1.1-0.3c-0.3-0.2-0.5-0.5-0.5-0.8h-4c-0.4,1.9,1.4,3.6,4.8,3.6
		c3.5,0,6.3-1.2,6.9-3.7c0.9-3.9-6.7-2.9-6.3-4.5c0.1-0.4,0.6-0.6,1.5-0.6c0.4,0,0.8,0.1,1,0.2c0.3,0.1,0.5,0.4,0.4,0.7
		C130.4,74.7,134.4,74.7,134.4,74.7z M167.3,71.3c-4,0-7.2,2.2-8,5.5c-0.9,3.6,1.3,5.7,5.3,5.7c3.8,0,7.2-2,8.1-5.7
		C173.4,74,171.9,71.3,167.3,71.3z M166.7,73.9c1.9,0,2.2,1.5,1.9,3c-0.4,1.8-1.5,3.1-3.3,3.1c-2,0-2.1-1.7-1.8-3.1
		C163.8,75.5,164.8,73.9,166.7,73.9z M207.2,82.2l0.6-2.5H202l2-8.2h-4.2l-2.6,10.7H207.2z M237.1,82.2l2.6-10.7h-4.2l-2.6,10.7
		H237.1z M268.9,82.2c4.1,0,7.2-1.5,8.1-5.6c0.8-3.5-1.3-5.1-5.5-5.1h-5.6l-2.6,10.7H268.9z M269.5,74h0.8c2.2,0,3,0.6,2.4,2.8
		c-0.5,2-1.8,2.9-3.7,2.9h-0.9L269.5,74z"></path>
</g>
<g>
	<path class="st0" d="M289.9,96.7c-0.6,0.6-1.2,0.8-2,0.8s-1.5-0.3-2-0.8s-0.8-1.2-0.8-2c0-0.8,0.3-1.5,0.8-2s1.2-0.8,2-0.8
		s1.5,0.3,2,0.8s0.8,1.2,0.8,2C290.7,95.4,290.4,96.1,289.9,96.7z M286.1,92.9c-0.5,0.5-0.7,1.1-0.7,1.7c0,0.7,0.2,1.3,0.7,1.8
		c0.5,0.5,1.1,0.7,1.7,0.7s1.3-0.2,1.7-0.7c0.5-0.5,0.7-1.1,0.7-1.8c0-0.7-0.2-1.3-0.7-1.7c-0.5-0.5-1.1-0.7-1.7-0.7
		C287.2,92.2,286.6,92.4,286.1,92.9z M288.8,96c-0.2,0.2-0.5,0.3-0.9,0.3c-0.4,0-0.8-0.2-1.1-0.5c-0.3-0.3-0.5-0.7-0.5-1.2
		c0-0.5,0.1-0.9,0.4-1.2s0.6-0.5,1.1-0.5c0.3,0,0.5,0.1,0.8,0.2c0.4,0.2,0.6,0.5,0.6,1h-0.5c0-0.2-0.1-0.4-0.2-0.5
		c-0.1-0.1-0.3-0.2-0.6-0.2c-0.4,0-0.7,0.2-0.8,0.5c-0.1,0.2-0.2,0.4-0.2,0.7c0,0.4,0.1,0.7,0.3,0.9c0.2,0.2,0.4,0.4,0.8,0.4
		c0.2,0,0.4-0.1,0.5-0.2c0.1-0.1,0.2-0.3,0.3-0.5h0.5C289.2,95.6,289.1,95.8,288.8,96z"></path>
	<path class="st0" d="M291.7,91.8h0.8v2.8l2.9-2.8h1.1l-2.5,2.3l2.5,3.4h-1l-2.1-2.9l-0.9,0.9v2h-0.8V91.8z"></path>
	<path class="st0" d="M300.3,93.8c0.4,0.4,0.6,0.9,0.6,1.6c0,0.7-0.2,1.2-0.5,1.7c-0.3,0.4-0.8,0.7-1.5,0.7c-0.6,0-1-0.2-1.4-0.6
		c-0.3-0.4-0.5-0.9-0.5-1.6c0-0.7,0.2-1.3,0.5-1.7c0.4-0.4,0.8-0.6,1.4-0.6C299.5,93.2,300,93.4,300.3,93.8z M299.9,96.5
		c0.2-0.4,0.3-0.7,0.3-1.2c0-0.4-0.1-0.7-0.2-1c-0.2-0.4-0.5-0.6-1-0.6c-0.4,0-0.7,0.2-0.9,0.5c-0.2,0.3-0.3,0.7-0.3,1.2
		c0,0.4,0.1,0.8,0.3,1.1c0.2,0.3,0.5,0.4,0.9,0.4C299.4,97.1,299.7,96.9,299.9,96.5z"></path>
	<path class="st0" d="M302.1,93.3h0.7v0.6c0.2-0.2,0.4-0.4,0.6-0.5c0.2-0.1,0.5-0.2,0.7-0.2c0.6,0,1,0.2,1.2,0.6
		c0.1,0.2,0.2,0.6,0.2,1v2.7h-0.7v-2.6c0-0.3,0-0.5-0.1-0.6c-0.1-0.3-0.4-0.4-0.7-0.4c-0.2,0-0.3,0-0.4,0.1
		c-0.2,0.1-0.4,0.2-0.5,0.3c-0.1,0.1-0.2,0.3-0.2,0.4s-0.1,0.4-0.1,0.6v2.2h-0.7V93.3z"></path>
	<path class="st0" d="M309.1,95c0.2,0,0.3-0.1,0.3-0.2c0-0.1,0-0.2,0-0.3c0-0.2-0.1-0.4-0.3-0.5c-0.2-0.1-0.4-0.2-0.7-0.2
		c-0.4,0-0.6,0.1-0.8,0.3c-0.1,0.1-0.1,0.3-0.2,0.5h-0.7c0-0.5,0.2-0.9,0.5-1.1s0.7-0.3,1.1-0.3c0.5,0,0.9,0.1,1.2,0.3
		c0.3,0.2,0.5,0.5,0.5,0.9v2.4c0,0.1,0,0.1,0,0.2c0,0,0.1,0.1,0.2,0.1c0,0,0.1,0,0.1,0s0.1,0,0.1,0v0.5c-0.1,0-0.2,0.1-0.2,0.1
		c-0.1,0-0.1,0-0.2,0c-0.2,0-0.4-0.1-0.5-0.3c-0.1-0.1-0.1-0.2-0.1-0.4c-0.1,0.2-0.3,0.4-0.6,0.5c-0.3,0.1-0.6,0.2-0.9,0.2
		c-0.4,0-0.7-0.1-1-0.4s-0.4-0.5-0.4-0.9c0-0.4,0.1-0.7,0.4-0.9c0.2-0.2,0.6-0.3,1-0.4L309.1,95z M307.6,96.9
		c0.1,0.1,0.3,0.2,0.5,0.2c0.2,0,0.5-0.1,0.7-0.2c0.4-0.2,0.6-0.5,0.6-0.9v-0.6c-0.1,0.1-0.2,0.1-0.3,0.1c-0.1,0-0.3,0.1-0.4,0.1
		l-0.4,0.1c-0.3,0-0.4,0.1-0.6,0.2c-0.2,0.1-0.3,0.3-0.3,0.6C307.4,96.6,307.5,96.8,307.6,96.9z"></path>
	<path class="st0" d="M311.6,93.3h0.7v0.6c0.2-0.2,0.3-0.4,0.5-0.4c0.2-0.2,0.5-0.2,0.8-0.2c0.3,0,0.6,0.1,0.8,0.2
		c0.1,0.1,0.2,0.2,0.3,0.4c0.2-0.2,0.3-0.4,0.6-0.5s0.4-0.2,0.7-0.2c0.6,0,0.9,0.2,1.1,0.6c0.1,0.2,0.2,0.5,0.2,0.9v2.8h-0.7v-2.9
		c0-0.3-0.1-0.5-0.2-0.6c-0.1-0.1-0.3-0.2-0.5-0.2c-0.3,0-0.5,0.1-0.7,0.3s-0.3,0.5-0.3,0.9v2.4h-0.7v-2.7c0-0.3,0-0.5-0.1-0.6
		c-0.1-0.2-0.3-0.3-0.6-0.3c-0.3,0-0.5,0.1-0.7,0.3c-0.2,0.2-0.3,0.6-0.3,1.1v2.2h-0.7V93.3z"></path>
	<path class="st0" d="M318.6,91.8h0.7v0.8h-0.7V91.8z M318.6,93.4h0.7v4.2h-0.7V93.4z"></path>
	<path class="st0" d="M323.4,91.8h2.3c0.8,0,1.4,0.3,1.8,0.8c0.4,0.5,0.6,1.2,0.6,1.9c0,0.6-0.1,1.2-0.3,1.7
		c-0.4,0.9-1.1,1.3-2.1,1.3h-2.3V91.8z M325.5,96.9c0.3,0,0.5,0,0.6-0.1c0.3-0.1,0.5-0.3,0.7-0.6c0.2-0.2,0.3-0.5,0.3-0.9
		c0-0.2,0.1-0.4,0.1-0.6c0-0.7-0.1-1.3-0.4-1.7s-0.7-0.6-1.3-0.6h-1.3v4.4H325.5z"></path>
	<path class="st0" d="M329.3,91.8h0.7v0.8h-0.7V91.8z M329.3,93.4h0.7v4.2h-0.7V93.4z"></path>
	<path class="st0" d="M333.8,93.5c0.1,0.1,0.3,0.2,0.4,0.4v-0.5h0.6v3.8c0,0.5-0.1,1-0.2,1.3c-0.3,0.6-0.8,0.9-1.6,0.9
		c-0.4,0-0.8-0.1-1.1-0.3c-0.3-0.2-0.5-0.5-0.5-0.9h0.7c0,0.2,0.1,0.3,0.2,0.4c0.2,0.2,0.4,0.2,0.7,0.2c0.5,0,0.9-0.2,1.1-0.6
		c0.1-0.2,0.1-0.6,0.1-1.2c-0.1,0.2-0.3,0.4-0.5,0.5s-0.5,0.2-0.8,0.2c-0.5,0-0.8-0.2-1.2-0.5c-0.3-0.3-0.5-0.9-0.5-1.6
		c0-0.7,0.2-1.2,0.5-1.6c0.3-0.4,0.8-0.6,1.2-0.6C333.2,93.3,333.5,93.4,333.8,93.5z M333.8,94.3c-0.2-0.2-0.5-0.4-0.8-0.4
		c-0.5,0-0.8,0.2-1,0.7c-0.1,0.2-0.1,0.6-0.1,1c0,0.5,0.1,0.8,0.3,1.1s0.4,0.4,0.8,0.4c0.5,0,0.9-0.2,1.1-0.7
		c0.1-0.3,0.2-0.6,0.2-0.9C334.2,94.9,334.1,94.5,333.8,94.3z"></path>
	<path class="st0" d="M336.2,91.8h0.7v0.8h-0.7V91.8z M336.2,93.4h0.7v4.2h-0.7V93.4z"></path>
	<path class="st0" d="M338.4,92.2h0.7v1.2h0.7v0.6h-0.7v2.7c0,0.1,0,0.2,0.1,0.3c0.1,0,0.1,0,0.3,0c0,0,0.1,0,0.1,0c0,0,0.1,0,0.1,0
		v0.6c-0.1,0-0.2,0-0.3,0.1c-0.1,0-0.2,0-0.3,0c-0.3,0-0.6-0.1-0.7-0.3s-0.2-0.4-0.2-0.7v-2.8h-0.6v-0.6h0.6V92.2z"></path>
	<path class="st0" d="M343.1,95c0.2,0,0.3-0.1,0.3-0.2c0-0.1,0-0.2,0-0.3c0-0.2-0.1-0.4-0.3-0.5c-0.2-0.1-0.4-0.2-0.7-0.2
		c-0.4,0-0.6,0.1-0.8,0.3c-0.1,0.1-0.1,0.3-0.2,0.5h-0.7c0-0.5,0.2-0.9,0.5-1.1s0.7-0.3,1.1-0.3c0.5,0,0.9,0.1,1.2,0.3
		c0.3,0.2,0.5,0.5,0.5,0.9v2.4c0,0.1,0,0.1,0,0.2c0,0,0.1,0.1,0.2,0.1c0,0,0.1,0,0.1,0s0.1,0,0.1,0v0.5c-0.1,0-0.2,0.1-0.2,0.1
		c-0.1,0-0.1,0-0.2,0c-0.2,0-0.4-0.1-0.5-0.3c-0.1-0.1-0.1-0.2-0.1-0.4c-0.1,0.2-0.3,0.4-0.6,0.5c-0.3,0.1-0.6,0.2-0.9,0.2
		c-0.4,0-0.7-0.1-1-0.4s-0.4-0.5-0.4-0.9c0-0.4,0.1-0.7,0.4-0.9c0.2-0.2,0.6-0.3,1-0.4L343.1,95z M341.6,96.9
		c0.1,0.1,0.3,0.2,0.5,0.2c0.2,0,0.5-0.1,0.7-0.2c0.4-0.2,0.6-0.5,0.6-0.9v-0.6c-0.1,0.1-0.2,0.1-0.3,0.1c-0.1,0-0.3,0.1-0.4,0.1
		l-0.4,0.1c-0.3,0-0.4,0.1-0.6,0.2c-0.2,0.1-0.3,0.3-0.3,0.6C341.4,96.6,341.5,96.8,341.6,96.9z"></path>
	<path class="st0" d="M345.6,91.8h0.7v5.7h-0.7V91.8z"></path>
	<path class="st0" d="M350.4,91.8h4.2v0.7h-3.4v1.7h3.1v0.7h-3.1v1.9h3.5v0.7h-4.2V91.8z"></path>
	<path class="st0" d="M355.9,93.3h0.7v0.6c0.2-0.2,0.4-0.4,0.6-0.5c0.2-0.1,0.5-0.2,0.7-0.2c0.6,0,1,0.2,1.2,0.6
		c0.1,0.2,0.2,0.6,0.2,1v2.7h-0.7v-2.6c0-0.3,0-0.5-0.1-0.6c-0.1-0.3-0.4-0.4-0.7-0.4c-0.2,0-0.3,0-0.4,0.1
		c-0.2,0.1-0.4,0.2-0.5,0.3c-0.1,0.1-0.2,0.3-0.2,0.4s-0.1,0.4-0.1,0.6v2.2h-0.7V93.3z"></path>
	<path class="st0" d="M360.8,92.2h0.7v1.2h0.7v0.6h-0.7v2.7c0,0.1,0,0.2,0.1,0.3c0.1,0,0.1,0,0.3,0c0,0,0.1,0,0.1,0c0,0,0.1,0,0.1,0
		v0.6c-0.1,0-0.2,0-0.3,0.1c-0.1,0-0.2,0-0.3,0c-0.3,0-0.6-0.1-0.7-0.3s-0.2-0.4-0.2-0.7v-2.8h-0.6v-0.6h0.6V92.2z"></path>
	<path class="st0" d="M365.8,93.5c0.3,0.1,0.5,0.3,0.6,0.5c0.1,0.2,0.2,0.5,0.3,0.7c0,0.2,0.1,0.5,0.1,0.9h-3c0,0.4,0.1,0.8,0.3,1
		c0.2,0.3,0.5,0.4,0.9,0.4c0.4,0,0.7-0.1,0.9-0.4c0.1-0.1,0.2-0.3,0.3-0.5h0.7c0,0.2-0.1,0.3-0.2,0.5c-0.1,0.2-0.2,0.3-0.3,0.5
		c-0.2,0.2-0.5,0.3-0.8,0.4c-0.2,0-0.4,0.1-0.6,0.1c-0.5,0-1-0.2-1.3-0.6c-0.4-0.4-0.5-0.9-0.5-1.6c0-0.7,0.2-1.2,0.5-1.6
		s0.8-0.6,1.4-0.6C365.2,93.2,365.5,93.3,365.8,93.5z M366.1,95.1c0-0.3-0.1-0.5-0.2-0.7c-0.2-0.3-0.5-0.5-1-0.5
		c-0.3,0-0.6,0.1-0.8,0.3s-0.3,0.5-0.3,0.9H366.1z"></path>
	<path class="st0" d="M368,93.3h0.7v0.7c0.1-0.1,0.2-0.3,0.4-0.5c0.2-0.2,0.5-0.3,0.7-0.3c0,0,0,0,0.1,0s0.1,0,0.2,0V94
		c0,0-0.1,0-0.1,0s-0.1,0-0.1,0c-0.4,0-0.6,0.1-0.8,0.3c-0.2,0.2-0.3,0.5-0.3,0.8v2.4H368V93.3z"></path>
	<path class="st0" d="M371.1,92.2h0.7v1.2h0.7v0.6h-0.7v2.7c0,0.1,0,0.2,0.1,0.3c0.1,0,0.1,0,0.3,0c0,0,0.1,0,0.1,0c0,0,0.1,0,0.1,0
		v0.6c-0.1,0-0.2,0-0.3,0.1c-0.1,0-0.2,0-0.3,0c-0.3,0-0.6-0.1-0.7-0.3s-0.2-0.4-0.2-0.7v-2.8h-0.6v-0.6h0.6V92.2z"></path>
	<path class="st0" d="M375.8,95c0.2,0,0.3-0.1,0.3-0.2c0-0.1,0-0.2,0-0.3c0-0.2-0.1-0.4-0.3-0.5c-0.2-0.1-0.4-0.2-0.7-0.2
		c-0.4,0-0.6,0.1-0.8,0.3c-0.1,0.1-0.1,0.3-0.2,0.5h-0.7c0-0.5,0.2-0.9,0.5-1.1s0.7-0.3,1.1-0.3c0.5,0,0.9,0.1,1.2,0.3
		c0.3,0.2,0.5,0.5,0.5,0.9v2.4c0,0.1,0,0.1,0,0.2c0,0,0.1,0.1,0.2,0.1c0,0,0.1,0,0.1,0s0.1,0,0.1,0v0.5c-0.1,0-0.2,0.1-0.2,0.1
		c-0.1,0-0.1,0-0.2,0c-0.2,0-0.4-0.1-0.5-0.3c-0.1-0.1-0.1-0.2-0.1-0.4c-0.1,0.2-0.3,0.4-0.6,0.5c-0.3,0.1-0.6,0.2-0.9,0.2
		c-0.4,0-0.7-0.1-1-0.4s-0.4-0.5-0.4-0.9c0-0.4,0.1-0.7,0.4-0.9c0.2-0.2,0.6-0.3,1-0.4L375.8,95z M374.3,96.9
		c0.1,0.1,0.3,0.2,0.5,0.2c0.2,0,0.5-0.1,0.7-0.2c0.4-0.2,0.6-0.5,0.6-0.9v-0.6c-0.1,0.1-0.2,0.1-0.3,0.1c-0.1,0-0.3,0.1-0.4,0.1
		l-0.4,0.1c-0.3,0-0.4,0.1-0.6,0.2c-0.2,0.1-0.3,0.3-0.3,0.6C374.1,96.6,374.1,96.8,374.3,96.9z"></path>
	<path class="st0" d="M378.3,91.8h0.7v0.8h-0.7V91.8z M378.3,93.4h0.7v4.2h-0.7V93.4z"></path>
	<path class="st0" d="M380.4,93.3h0.7v0.6c0.2-0.2,0.4-0.4,0.6-0.5c0.2-0.1,0.5-0.2,0.7-0.2c0.6,0,1,0.2,1.2,0.6
		c0.1,0.2,0.2,0.6,0.2,1v2.7h-0.7v-2.6c0-0.3,0-0.5-0.1-0.6c-0.1-0.3-0.4-0.4-0.7-0.4c-0.2,0-0.3,0-0.4,0.1
		c-0.2,0.1-0.4,0.2-0.5,0.3c-0.1,0.1-0.2,0.3-0.2,0.4s-0.1,0.4-0.1,0.6v2.2h-0.7V93.3z"></path>
	<path class="st0" d="M385.2,93.3h0.7v0.6c0.2-0.2,0.3-0.4,0.5-0.4c0.2-0.2,0.5-0.2,0.8-0.2c0.3,0,0.6,0.1,0.8,0.2
		c0.1,0.1,0.2,0.2,0.3,0.4c0.2-0.2,0.3-0.4,0.6-0.5s0.4-0.2,0.7-0.2c0.6,0,0.9,0.2,1.1,0.6c0.1,0.2,0.2,0.5,0.2,0.9v2.8H390v-2.9
		c0-0.3-0.1-0.5-0.2-0.6c-0.1-0.1-0.3-0.2-0.5-0.2c-0.3,0-0.5,0.1-0.7,0.3s-0.3,0.5-0.3,0.9v2.4h-0.7v-2.7c0-0.3,0-0.5-0.1-0.6
		c-0.1-0.2-0.3-0.3-0.6-0.3c-0.3,0-0.5,0.1-0.7,0.3c-0.2,0.2-0.3,0.6-0.3,1.1v2.2h-0.7V93.3z"></path>
	<path class="st0" d="M394.7,93.5c0.3,0.1,0.5,0.3,0.6,0.5c0.1,0.2,0.2,0.5,0.3,0.7c0,0.2,0.1,0.5,0.1,0.9h-3c0,0.4,0.1,0.8,0.3,1
		c0.2,0.3,0.5,0.4,0.9,0.4c0.4,0,0.7-0.1,0.9-0.4c0.1-0.1,0.2-0.3,0.3-0.5h0.7c0,0.2-0.1,0.3-0.2,0.5c-0.1,0.2-0.2,0.3-0.3,0.5
		c-0.2,0.2-0.5,0.3-0.8,0.4c-0.2,0-0.4,0.1-0.6,0.1c-0.5,0-1-0.2-1.3-0.6c-0.4-0.4-0.5-0.9-0.5-1.6c0-0.7,0.2-1.2,0.5-1.6
		s0.8-0.6,1.4-0.6C394.2,93.2,394.4,93.3,394.7,93.5z M395,95.1c0-0.3-0.1-0.5-0.2-0.7c-0.2-0.3-0.5-0.5-1-0.5
		c-0.3,0-0.6,0.1-0.8,0.3s-0.3,0.5-0.3,0.9H395z"></path>
	<path class="st0" d="M396.9,93.3h0.7v0.6c0.2-0.2,0.4-0.4,0.6-0.5c0.2-0.1,0.5-0.2,0.7-0.2c0.6,0,1,0.2,1.2,0.6
		c0.1,0.2,0.2,0.6,0.2,1v2.7h-0.7v-2.6c0-0.3,0-0.5-0.1-0.6c-0.1-0.3-0.4-0.4-0.7-0.4c-0.2,0-0.3,0-0.4,0.1
		c-0.2,0.1-0.4,0.2-0.5,0.3c-0.1,0.1-0.2,0.3-0.2,0.4s-0.1,0.4-0.1,0.6v2.2h-0.7V93.3z"></path>
	<path class="st0" d="M401.8,92.2h0.7v1.2h0.7v0.6h-0.7v2.7c0,0.1,0,0.2,0.1,0.3c0.1,0,0.1,0,0.3,0c0,0,0.1,0,0.1,0c0,0,0.1,0,0.1,0
		v0.6c-0.1,0-0.2,0-0.3,0.1c-0.1,0-0.2,0-0.3,0c-0.3,0-0.6-0.1-0.7-0.3s-0.2-0.4-0.2-0.7v-2.8h-0.6v-0.6h0.6V92.2z"></path>
</g>
</svg>
