<?xml version="1.0" encoding="UTF-8" standalone="no"?>
<svg
   width="2279.4231"
   height="317.35324"
   viewBox="0 0 175.74899 24.468697"
   version="1.1"
   id="svg2"
   xmlns="http://www.w3.org/2000/svg"
   xmlns:svg="http://www.w3.org/2000/svg">
  <defs
     id="defs2" />
  <path
     d="M 173.147,6.467 V 5.272 h -0.492 V 4.991 h 1.266 v 0.281 h -0.422 v 1.195 z m 0.985,0 V 4.991 h 0.492 l 0.281,1.125 0.352,-1.125 h 0.492 v 1.476 h -0.352 V 5.272 l -0.281,1.195 h -0.352 L 174.412,5.272 V 6.467 Z M 4.078,5.132 h 8.717 c 3.796,4.851 7.733,9.771 11.529,14.622 1.617,2.109 0.773,4.57 -1.758,4.57 H 0 c 1.757,-1.758 3.515,-3.445 5.272,-5.133 0.914,-0.843 0.773,-0.632 1.828,0 1.828,1.055 2.882,1.266 5.624,1.266 h 4.147 C 12.655,15.325 8.367,10.263 4.078,5.132 Z M 86.539,4.358 c -0.633,4.358 -1.055,9.491 1.125,13.076 1.476,2.53 4.499,4.358 9.351,4.358 -2.391,2.038 -4.43,2.742 -7.242,2.672 C 83.869,24.253 78.807,18.418 78.526,11.88 78.456,9.42 78.877,6.678 79.792,4.358 Z M 85.204,0 c -1.898,0 -4.288,2.32 -5.272,3.797 h 15.677 c 0.422,0 0.703,0.281 0.844,0.632 0.422,0.844 0.422,1.125 1.123,0.562 1.055,-0.773 3.234,-2.39 5.203,-3.796 C 104.256,0.14 103.834,0 101.935,0 Z m 17.082,4.991 c -0.844,0 -1.055,0 -1.688,0.422 -1.336,0.773 -3.303,1.968 -4.639,2.742 -0.562,0.352 -1.336,0.703 -0.141,0.703 h 13.006 c 1.756,0 1.896,1.898 0.982,3.093 -1.334,1.546 -2.039,2.461 -3.303,4.077 -0.773,0.914 -0.703,0.914 0.211,1.757 l 3.303,3.305 h 13.357 l 1.055,-4.147 h 5.201 l -1.266,-3.656 h -3.021 l 0.914,-3.725 h -4.641 L 117.96,21.02 a 9793.195,9793.195 0 0 0 -6.115,-4.64 c 0.844,-1.055 1.688,-2.108 2.531,-3.164 0.773,-0.983 1.547,-2.108 1.547,-3.654 0,-2.18 -1.547,-4.57 -4.641,-4.57 z m -39.086,0 c -0.773,0 -0.984,0 -1.688,0.422 -1.335,0.773 -3.304,1.968 -4.64,2.742 -0.562,0.352 -1.335,0.703 -0.07,0.703 h 12.935 c 1.758,0 1.898,1.898 0.984,3.093 -1.265,1.546 -2.039,2.461 -3.304,4.077 -0.703,0.914 -0.633,0.914 0.211,1.757 l 3.304,3.305 h 8.084 C 76.907,19.543 74.869,17.926 72.76,16.38 l 2.531,-3.164 c 0.773,-0.983 1.547,-2.108 1.547,-3.654 0,-2.18 -1.477,-4.57 -4.569,-4.57 z m 35.5,4.57 h 6.188 V 21.089 H 98.7 Z m -39.085,0 h 6.187 v 11.528 h -6.187 z m 80.702,-4.57 h 13.076 c 1.477,0 1.266,0.211 0,1.406 -0.703,0.562 -1.266,1.125 -1.896,1.687 -0.846,0.843 -0.986,0.773 -2.18,0.773 h -13.076 c -2.18,0 -1.969,0.141 -0.352,-1.195 0.773,-0.703 1.547,-1.335 2.32,-2.039 0.845,-0.702 1.056,-0.632 2.108,-0.632 z m -1.896,4.57 h 5.764 v 2.671 h 4.992 c 2.037,0 1.686,0.281 0.281,1.335 -0.703,0.563 -1.477,1.125 -2.25,1.688 -0.562,0.422 -0.703,0.422 -1.406,0.422 h -1.617 v 5.413 h -5.764 z m -10.404,1.194 c -0.633,-1.898 -2.32,-2.53 -4.781,-2.53 h -1.688 c -0.211,-0.914 1.898,-1.898 3.023,-2.601 1.055,-0.633 1.477,-0.633 2.812,-0.633 h 3.232 c 0.773,0 0.984,0.422 1.336,1.406 l 5.695,14.692 h -5.906 c -1.194,-3.375 -2.458,-7.029 -3.723,-10.334 z m -78.947,0 C 48.438,8.857 46.68,8.225 44.29,8.225 H 42.602 C 42.391,7.311 44.5,6.327 45.625,5.624 46.679,4.991 47.102,4.991 48.437,4.991 h 3.234 c 0.773,0 0.984,0.422 1.335,1.406 L 58.7,21.089 H 52.795 C 51.601,17.714 50.335,14.06 49.07,10.755 Z M 42.672,9.561 38.946,21.089 h 5.483 l 1.055,-4.147 h 5.202 L 49.42,13.286 H 46.397 L 47.311,9.561 Z M 171.108,5.975 c -0.842,-0.984 -0.631,-0.984 -1.896,-0.984 h -11.811 c -1.125,0 -0.984,0 -1.898,0.914 -0.633,0.703 -1.195,1.336 -1.828,2.18 -0.352,0.492 0.07,0.492 0.352,0.492 h 12.092 c 0.211,0.422 0.492,0.844 0.773,1.266 0.281,0.562 0.352,0.492 0.984,0.492 h 1.336 c 0.844,0 1.266,-0.07 1.967,-0.562 0.914,-0.562 1.477,-1.476 0.914,-2.32 -0.352,-0.634 -0.563,-0.915 -0.985,-1.478 z M 23.129,6.045 c -0.562,0.492 -1.125,1.125 -1.617,1.617 -0.914,0.844 -0.07,1.898 0.843,2.53 0.703,0.562 1.125,0.562 1.969,0.562 h 1.617 c 0.703,0 0.703,0.141 1.054,-0.492 0.281,-0.421 0.562,-0.913 0.773,-1.406 h 13.216 c 0.211,0 0.633,0 0.352,-0.492 C 40.844,7.45 40.492,6.887 40.001,5.973 39.509,5.13 39.227,4.989 38.243,4.989 H 25.378 c -1.264,0.002 -1.264,0.143 -2.249,1.056 z m 134.835,3.516 h 7.24 v 7.451 c 0,1.266 -0.07,1.266 -0.633,2.319 -0.562,1.125 -3.164,4.429 -4.006,4.429 -0.633,0 -2.602,-3.304 -2.602,-5.271 V 9.561 Z m -129.14,0 h 7.17 v 7.451 c 0,1.266 0,1.266 -0.562,2.319 -0.633,1.125 -3.234,4.429 -4.007,4.429 -0.632,0 -2.601,-3.304 -2.601,-5.271 z M 6.89,0 C 4.43,0 3.024,0.985 3.024,3.867 h 13.005 c 1.898,0 2.531,0 3.585,1.335 0.633,0.703 0.773,0.703 1.406,-0.07 A 194.74,194.74 0 0 1 24.254,1.195 C 24.816,0.563 24.535,0 23.621,0 Z"
     id="path2"
     style="clip-rule:evenodd;fill-rule:evenodd" />
</svg>
